<svg width="11" height="12" viewBox="0 0 11 12" fill="none" xmlns="http://www.w3.org/2000/svg">
<path fill-rule="evenodd" clip-rule="evenodd" d="M3.69279 1.35229C4.21166 -0.450764 6.78834 -0.450764 7.30721 1.35229C7.47291 1.9281 8.06943 2.26964 8.65512 2.12405C10.4891 1.66815 11.7775 3.88109 10.4623 5.22825C10.0423 5.65846 10.0423 6.34154 10.4623 6.77176C11.7775 8.11891 10.4891 10.3319 8.65512 9.87595C8.06943 9.73036 7.47291 10.0719 7.30721 10.6477C6.78834 12.4508 4.21166 12.4508 3.69279 10.6477C3.52709 10.0719 2.93057 9.73036 2.34488 9.87595C0.510882 10.3319 -0.777454 8.11891 0.53767 6.77176C0.957654 6.34154 0.957654 5.65846 0.537671 5.22825C-0.777454 3.88109 0.510882 1.66815 2.34488 2.12405C2.93057 2.26964 3.52709 1.9281 3.69279 1.35229ZM7.82024 4.73298C7.95469 4.57298 7.93289 4.33519 7.77155 4.20185C7.61021 4.06852 7.37043 4.09014 7.23598 4.25014L5.47987 6.33997C5.29187 6.5637 5.17642 6.69967 5.08131 6.78484C5.03721 6.82434 5.01104 6.84008 4.9985 6.8461C4.99595 6.84732 4.99414 6.84806 4.99299 6.84848C4.99184 6.84806 4.99003 6.84732 4.98748 6.8461C4.97494 6.84008 4.94878 6.82434 4.90467 6.78484C4.80956 6.69967 4.69411 6.5637 4.50611 6.33997L3.76405 5.45689C3.6296 5.29689 3.38982 5.27528 3.22848 5.40861C3.06714 5.54194 3.04534 5.77974 3.17979 5.93974L3.93804 6.84209C4.10459 7.04032 4.25472 7.21903 4.39496 7.34461C4.54755 7.48126 4.73974 7.60295 4.99299 7.60295C5.24624 7.60295 5.43844 7.48126 5.59102 7.34461C5.73126 7.21903 5.8814 7.04032 6.04794 6.84209L7.82024 4.73298Z" fill="#8BCD50"/>
</svg>
