<svg width="12" height="12" viewBox="0 0 12 12" fill="none" xmlns="http://www.w3.org/2000/svg">
<path d="M4.5 4.5L4.66765 3.99704C5.01945 2.94166 6.41179 2.71571 7.07927 3.60569C7.47026 4.12702 7.44299 4.85087 7.01387 5.3413L6.55426 5.86656C6.19695 6.27492 6 6.79909 6 7.3417V7.5M11 6C11 8.76142 8.76142 11 6 11C3.23858 11 1 8.76142 1 6C1 3.23858 3.23858 1 6 1C8.76142 1 11 3.23858 11 6Z" stroke="#2D264B" stroke-linecap="round"/>
<path d="M6.5 9C6.5 9.27614 6.27614 9.5 6 9.5C5.72386 9.5 5.5 9.27614 5.5 9C5.5 8.72386 5.72386 8.5 6 8.5C6.27614 8.5 6.5 8.72386 6.5 9Z" fill="#2D264B"/>
</svg>
