<svg width="19" height="17" viewBox="0 0 19 17" fill="none" xmlns="http://www.w3.org/2000/svg">
<path fill-rule="evenodd" clip-rule="evenodd" d="M14.3282 0.107927C13.3189 4.83692e-05 12.0467 5.40316e-05 10.4237 6.11505e-05H8.57629C6.95331 5.40316e-05 5.6811 4.83692e-05 4.67177 0.107927C3.64176 0.218015 2.80719 0.446703 2.09463 0.957425C1.66324 1.26661 1.28388 1.64086 0.97046 2.06642C0.827578 2.26043 0.705219 2.46533 0.600816 2.68342C0.281097 3.35128 0.138488 4.12572 0.0689874 5.04922C-3.98346e-06 5.96595 -2.14803e-06 7.0897 1.16949e-07 8.47527V8.53951C-7.09937e-06 10.1406 -1.28393e-05 11.3956 0.109341 12.3913C0.220936 13.4074 0.452752 14.2308 0.97046 14.9337C1.28388 15.3593 1.66324 15.7335 2.09463 16.0427C2.80719 16.5534 3.64176 16.7821 4.67177 16.8922C5.68108 17.0001 6.95326 17.0001 8.57621 17.0001H10.4237C12.0467 17.0001 13.3189 17.0001 14.3282 16.8922C15.3582 16.7821 16.1928 16.5534 16.9054 16.0427C17.3368 15.7335 17.7161 15.3593 18.0295 14.9337C18.5472 14.2308 18.7791 13.4074 18.8907 12.3913C19 11.3956 19 10.1406 19 8.53959V8.47469C19 7.07967 19 5.94994 18.9295 5.02948C18.8585 4.10191 18.7127 3.3249 18.3855 2.65508C18.2841 2.44749 18.1662 2.25194 18.0295 2.06642C17.7161 1.64086 17.3368 1.26661 16.9054 0.957425C16.1928 0.446703 15.3582 0.218015 14.3282 0.107927ZM2.87378 2.01537C3.32272 1.6936 3.89733 1.50604 4.81455 1.40801C5.74418 1.30865 6.94466 1.30775 8.61628 1.30775H10.3837C12.0553 1.30775 13.2558 1.30865 14.1854 1.40801C15.1027 1.50604 15.6773 1.6936 16.1262 2.01537C16.4449 2.24379 16.7252 2.52025 16.9568 2.83461L15.2802 4.48859C13.7941 5.95465 12.7256 7.0067 11.8041 7.70033C10.8978 8.38245 10.2119 8.65605 9.5 8.65605C8.78806 8.65605 8.10218 8.38245 7.19592 7.70033C6.27437 7.0067 5.20593 5.95465 3.71981 4.48859L2.04321 2.83461C2.2748 2.52025 2.55509 2.24379 2.87378 2.01537ZM17.4864 4.16146C17.5398 4.44064 17.5795 4.75911 17.6077 5.128C17.674 5.99359 17.6744 7.07452 17.6744 8.50006C17.6744 10.1491 17.6735 11.3334 17.5728 12.2505C17.4734 13.1553 17.2833 13.7222 16.9571 14.1651C16.7255 14.4796 16.4451 14.7562 16.1262 14.9848C15.6773 15.3065 15.1027 15.4941 14.1854 15.5921C13.2558 15.6915 12.0553 15.6924 10.3837 15.6924H8.61628C6.94466 15.6924 5.74418 15.6915 4.81455 15.5921C3.89733 15.4941 3.32272 15.3065 2.87378 14.9848C2.55494 14.7562 2.27454 14.4796 2.04288 14.1651C1.71671 13.7222 1.52659 13.1553 1.42721 12.2505C1.32649 11.3334 1.32558 10.1491 1.32558 8.50006C1.32558 7.08466 1.326 6.00885 1.39093 5.14604C1.41927 4.76951 1.4593 4.44522 1.51356 4.16146L2.81834 5.44863C4.26081 6.87166 5.39125 7.98685 6.39185 8.73998C7.41602 9.51085 8.38169 9.96375 9.5 9.96375C10.6183 9.96375 11.584 9.51085 12.6082 8.73998C13.6087 7.98685 14.7392 6.87167 16.1816 5.44865L17.4864 4.16146Z" fill="#A4A4A6"/>
</svg>
