<svg width="16" height="21" viewBox="0 0 16 21" fill="none" xmlns="http://www.w3.org/2000/svg">
<path d="M10.4332 17.9151L9.83567 17.4618L10.4332 17.9151ZM5.56681 17.9151L4.96928 18.3684L5.56681 17.9151ZM8 20V19.25V20ZM14.25 8.78679C14.25 9.88293 13.6959 11.3572 12.8165 12.9644C11.9525 14.5436 10.8352 16.1442 9.83567 17.4618L11.0307 18.3684C12.0523 17.0217 13.2183 15.355 14.1324 13.6844C15.0312 12.0419 15.75 10.2841 15.75 8.78679H14.25ZM6.16433 17.4618C5.16484 16.1442 4.04752 14.5436 3.18346 12.9644C2.30406 11.3572 1.75 9.88293 1.75 8.78679H0.25C0.25 10.2841 0.968825 12.0419 1.86757 13.6844C2.78165 15.355 3.94774 17.0217 4.96928 18.3684L6.16433 17.4618ZM1.75 8.78679C1.75 4.82334 4.62136 1.75 8 1.75V0.25C3.64665 0.25 0.25 4.14919 0.25 8.78679H1.75ZM8 1.75C11.3786 1.75 14.25 4.82334 14.25 8.78679H15.75C15.75 4.14919 12.3534 0.25 8 0.25V1.75ZM9.83567 17.4618C9.29227 18.1781 8.94022 18.638 8.62714 18.932C8.34495 19.197 8.17481 19.25 8 19.25V20.75C8.67677 20.75 9.19602 20.4555 9.65394 20.0255C10.0809 19.6245 10.5197 19.042 11.0307 18.3684L9.83567 17.4618ZM4.96928 18.3684C5.48029 19.042 5.91905 19.6245 6.34606 20.0255C6.80398 20.4555 7.32323 20.75 8 20.75V19.25C7.82519 19.25 7.65505 19.197 7.37286 18.932C7.05978 18.638 6.70773 18.1781 6.16433 17.4618L4.96928 18.3684ZM4.625 9.14073C4.625 11.03 6.11277 12.6043 8 12.6043V11.1043C6.98773 11.1043 6.125 10.2488 6.125 9.14073H4.625ZM8 12.6043C9.88723 12.6043 11.375 11.03 11.375 9.14073H9.875C9.875 10.2488 9.01227 11.1043 8 11.1043V12.6043ZM11.375 9.14073C11.375 7.25151 9.88723 5.67716 8 5.67716V7.17716C9.01227 7.17716 9.875 8.03262 9.875 9.14073H11.375ZM8 5.67716C6.11277 5.67716 4.625 7.25151 4.625 9.14073H6.125C6.125 8.03262 6.98773 7.17716 8 7.17716V5.67716Z" fill="#A4A4A6"/>
</svg>
