<svg width="18" height="18" viewBox="0 0 18 18" fill="none" xmlns="http://www.w3.org/2000/svg">
<path fill-rule="evenodd" clip-rule="evenodd" d="M5.41673 0.670026C4.44453 -0.223301 2.95017 -0.223301 1.97797 0.670026C1.93815 0.706611 1.89565 0.749125 1.84045 0.804331L1.01111 1.63368C0.176572 2.46821 -0.17376 3.67128 0.0822645 4.82339C1.53487 11.3601 6.63992 16.4652 13.1766 17.9178C14.3288 18.1738 15.5318 17.8235 16.3664 16.9889L17.1956 16.1597C17.2509 16.1044 17.2934 16.0619 17.33 16.0221C18.2233 15.0499 18.2233 13.5555 17.33 12.5833C17.2934 12.5435 17.2509 12.5009 17.1956 12.4457L15.8379 11.088C14.8953 10.1454 13.4717 9.87577 12.2497 10.4085C11.5501 10.7134 10.7351 10.5591 10.1954 10.0194L7.98061 7.8046C7.44095 7.26494 7.28661 6.44997 7.59157 5.75035C8.12426 4.5283 7.85466 3.10475 6.91202 2.16211L5.55426 0.804345C5.49906 0.749133 5.45655 0.706614 5.41673 0.670026ZM2.91581 1.69068C3.35772 1.28462 4.03698 1.28462 4.47889 1.69068C4.49414 1.70469 4.51413 1.72447 4.58443 1.79476L5.9319 3.14223C6.47156 3.68189 6.6259 4.49687 6.32094 5.19648C5.78825 6.41853 6.05785 7.84208 7.00049 8.78472L9.21531 10.9995C10.1579 11.9422 11.5815 12.2118 12.8035 11.6791C13.5032 11.3741 14.3181 11.5285 14.8578 12.0681L16.2053 13.4156C16.2756 13.4859 16.2953 13.5059 16.3094 13.5211C16.7154 13.9631 16.7154 14.6423 16.3094 15.0842C16.2953 15.0995 16.2756 15.1195 16.2053 15.1898L15.3862 16.0088C14.8868 16.5082 14.1668 16.7179 13.4773 16.5647C7.46597 15.2288 2.77122 10.5341 1.43536 4.5227C1.28214 3.83321 1.4918 3.11323 1.99123 2.6138L2.81027 1.79476C2.88056 1.72447 2.90056 1.70469 2.91581 1.69068Z" fill="#A4A4A6"/>
</svg>
