<svg width="17" height="15" viewBox="0 0 17 15" fill="none" xmlns="http://www.w3.org/2000/svg">
<path fill-rule="evenodd" clip-rule="evenodd" d="M1.04423 0.401544C0.973236 0.117592 0.685495 -0.055043 0.401544 0.0159518C0.117592 0.0869466 -0.055043 0.374687 0.0159518 0.658639L0.759209 3.63138L1.45085 6.5172C1.74495 7.74431 1.97643 8.71019 2.25113 9.46055C2.5329 10.2302 2.87845 10.8278 3.43284 11.286C3.48069 11.3255 3.52943 11.364 3.57904 11.4013C4.15384 11.8336 4.81546 12.0304 5.62963 12.125C6.42332 12.2172 7.41652 12.2172 8.67833 12.2172H9.09776C10.1895 12.2172 11.0489 12.2172 11.7413 12.1472C12.4504 12.0755 13.0339 11.9267 13.559 11.5979C13.8081 11.442 14.0395 11.2595 14.2492 11.0536C14.743 10.5688 15.036 9.96014 15.2882 9.17085C15.4737 8.59033 15.6465 7.88004 15.8544 7.0133L15.9061 6.79783C16.0595 6.15768 16.186 5.63008 16.2348 5.20265C16.2855 4.75904 16.2649 4.33665 16.0434 3.95098C15.9487 3.78603 15.8303 3.63588 15.6919 3.50533C15.3685 3.2001 14.9626 3.08153 14.5194 3.02745C14.0923 2.97534 13.5498 2.97536 12.8915 2.97537L1.68775 2.97537L1.04423 0.401544ZM2.47375 6.23743L1.94597 4.0353H12.8571C13.5584 4.0353 14.0358 4.03624 14.391 4.07958C14.7374 4.12186 14.8795 4.196 14.9645 4.2762C15.0273 4.33554 15.0812 4.40379 15.1242 4.47876C15.1824 4.58009 15.2214 4.73551 15.1818 5.08228C15.1457 5.39735 15.055 5.79795 14.921 6.35972L9.71624 6.35972C9.42355 6.35972 9.18627 6.59699 9.18627 6.88968C9.18627 7.18237 9.42355 7.41965 9.71624 7.41965L14.6656 7.41965C14.5674 7.82 14.4779 8.16989 14.3896 8.47958H11.8361C11.5434 8.47958 11.3061 8.71685 11.3061 9.00955C11.3061 9.30224 11.5434 9.53951 11.8361 9.53951H14.0173C13.8668 9.86648 13.7041 10.1034 13.5067 10.2972C13.3517 10.4494 13.1807 10.5843 12.9966 10.6995C12.6615 10.9093 12.2568 11.0298 11.6346 11.0927C11.0018 11.1567 10.1958 11.1573 9.06872 11.1573H8.7121C7.40919 11.1573 6.47745 11.1565 5.75199 11.0722C5.03993 10.9894 4.58469 10.8314 4.21615 10.5542C4.17949 10.5266 4.14346 10.4982 4.1081 10.469C3.75265 10.1752 3.49289 9.76933 3.24646 9.09617C2.99538 8.41034 2.77742 7.50445 2.47375 6.23743Z" fill="white"/>
<path d="M7.22446 13.9187C7.22446 14.3295 6.89144 14.6625 6.48065 14.6625C6.06985 14.6625 5.73684 14.3295 5.73684 13.9187C5.73684 13.5079 6.06985 13.1749 6.48065 13.1749C6.89144 13.1749 7.22446 13.5079 7.22446 13.9187Z" fill="white"/>
<path d="M11.6873 13.9187C11.6873 14.3295 11.3543 14.6625 10.9435 14.6625C10.5327 14.6625 10.1997 14.3295 10.1997 13.9187C10.1997 13.5079 10.5327 13.1749 10.9435 13.1749C11.3543 13.1749 11.6873 13.5079 11.6873 13.9187Z" fill="white"/>
</svg>
