<svg width="16" height="22" viewBox="0 0 16 22" fill="none" xmlns="http://www.w3.org/2000/svg">
<path d="M11.25 5.5C11.25 7.29493 9.79493 8.75 8 8.75V10.25C10.6234 10.25 12.75 8.12335 12.75 5.5H11.25ZM8 8.75C6.20507 8.75 4.75 7.29493 4.75 5.5H3.25C3.25 8.12335 5.37665 10.25 8 10.25V8.75ZM4.75 5.5C4.75 3.70507 6.20507 2.25 8 2.25V0.75C5.37665 0.75 3.25 2.87665 3.25 5.5H4.75ZM8 2.25C9.79493 2.25 11.25 3.70507 11.25 5.5H12.75C12.75 2.87665 10.6234 0.75 8 0.75V2.25ZM5 13.25H11V11.75H5V13.25ZM11 19.75H5V21.25H11V19.75ZM5 19.75C3.20507 19.75 1.75 18.2949 1.75 16.5H0.25C0.25 19.1234 2.37665 21.25 5 21.25V19.75ZM14.25 16.5C14.25 18.2949 12.7949 19.75 11 19.75V21.25C13.6234 21.25 15.75 19.1234 15.75 16.5H14.25ZM11 13.25C12.7949 13.25 14.25 14.7051 14.25 16.5H15.75C15.75 13.8766 13.6234 11.75 11 11.75V13.25ZM5 11.75C2.37665 11.75 0.25 13.8766 0.25 16.5H1.75C1.75 14.7051 3.20507 13.25 5 13.25V11.75Z" fill="#4F4F4F"/>
</svg>
