<svg width="14" height="12" viewBox="0 0 14 12" fill="none" xmlns="http://www.w3.org/2000/svg">
<path fill-rule="evenodd" clip-rule="evenodd" d="M5.89205 1.89481C4.78776 0.774972 2.97057 0.774972 1.86628 1.89481C0.796528 2.97962 0.796528 4.71303 1.86628 5.79785L6.90165 10.9041C6.95563 10.9588 7.04443 10.9588 7.09841 10.9041L12.1338 5.79785C13.2035 4.71303 13.2035 2.97962 12.1338 1.89481C11.0295 0.774972 9.2123 0.774972 8.10801 1.89481L7.38042 2.63268C7.28034 2.73417 7.14316 2.79138 7.00003 2.79138C6.85689 2.79138 6.71979 2.73417 6.61964 2.63268L5.89205 1.89481ZM1.10553 1.15729C2.62716 -0.385762 5.1311 -0.385762 6.65273 1.15729L7 1.50944L7.34727 1.15729C8.8689 -0.385762 11.3728 -0.385762 12.8945 1.15729C14.3685 2.65207 14.3685 5.04055 12.8945 6.53531L7.85909 11.6415C7.38777 12.1195 6.61223 12.1195 6.14091 11.6415L1.10553 6.53531C-0.368509 5.04055 -0.368509 2.65207 1.10553 1.15729Z" fill="#8BCD50"/>
</svg>
