<svg width="10" height="9" viewBox="0 0 10 9" fill="none" xmlns="http://www.w3.org/2000/svg">
<path fill-rule="evenodd" clip-rule="evenodd" d="M0.84129 4.21037C1.48834 6.22352 4.0447 7.8513 4.72405 8.2542C5.40572 7.84714 7.98054 6.20137 8.60682 4.21222C9.01803 2.92642 8.63636 1.29772 7.1198 0.808973C6.38506 0.573136 5.52802 0.716669 4.93635 1.1745C4.81267 1.26957 4.64098 1.27142 4.51637 1.17727C3.88963 0.706054 3.07089 0.56806 2.32461 0.808973C0.810369 1.29726 0.430077 2.92596 0.84129 4.21037ZM4.72453 9.00002C4.6673 9.00002 4.61053 8.98618 4.55884 8.95803C4.41439 8.87911 1.0116 7.00349 0.182253 4.42175C0.181792 4.42175 0.181792 4.42129 0.181792 4.42129C-0.338802 2.79582 0.240866 0.753132 2.11233 0.149926C2.99106 -0.13437 3.94871 -0.00929798 4.72314 0.479451C5.47357 0.00500914 6.47046 -0.126062 7.33165 0.149926C9.20496 0.754055 9.78647 2.79628 9.26634 4.42129C8.46376 6.97349 5.03605 8.87726 4.89068 8.9571C4.83898 8.98572 4.78176 9.00002 4.72453 9.00002Z" fill="#4F4F4F"/>
</svg>
