<svg width="22" height="22" viewBox="0 0 22 22" fill="none" xmlns="http://www.w3.org/2000/svg">
<path d="M2.63813 14.2911L3.35287 14.0638L2.63813 14.2911ZM1.6324 8.58207L2.35487 8.78343L1.6324 8.58207ZM5.83208 4.24484L5.38496 3.64268L5.83208 4.24484ZM1.735 8.25936L2.44109 8.51221L1.735 8.25936ZM5.37651 19.7134L4.95194 20.3316L5.37651 19.7134ZM5.10791 19.5139L4.6389 20.0992L5.10791 19.5139ZM19.3619 14.2911L18.6471 14.0638L19.3619 14.2911ZM16.8921 19.5139L17.3611 20.0992L16.8921 19.5139ZM16.6235 19.7134L17.0481 20.3316L16.6235 19.7134ZM16.1679 4.24484L16.615 3.64268L16.1679 4.24484ZM20.265 8.25936L19.5589 8.51221L20.265 8.25936ZM20.3676 8.58207L19.6451 8.78343L20.3676 8.58207ZM11.166 1.50311L11.1379 2.25258L11.166 1.50311ZM10.834 1.50311L10.8621 2.25258L10.834 1.50311ZM9.18871 15.3922C8.7745 15.3922 8.43871 15.728 8.43871 16.1422C8.43871 16.5564 8.7745 16.8922 9.18871 16.8922V15.3922ZM12.8113 16.8922C13.2255 16.8922 13.5613 16.5564 13.5613 16.1422C13.5613 15.728 13.2255 15.3922 12.8113 15.3922V16.8922ZM3.35287 14.0638C2.88678 12.5978 2.55583 11.5536 2.38228 10.7066C2.21217 9.87633 2.20949 9.30503 2.35487 8.78343L0.909938 8.38072C0.677253 9.21559 0.716175 10.0479 0.912811 11.0077C1.10601 11.9506 1.46695 13.0827 1.92338 14.5183L3.35287 14.0638ZM5.38496 3.64268C4.19046 4.52963 3.24602 5.22963 2.54618 5.87756C1.83295 6.53788 1.32127 7.19005 1.02891 8.00652L2.44109 8.51221C2.62302 8.00416 2.95228 7.54574 3.56523 6.97826C4.19156 6.39839 5.05851 5.75338 6.27919 4.84699L5.38496 3.64268ZM2.35487 8.78343C2.38036 8.69195 2.40913 8.60148 2.44109 8.51221L1.02891 8.00652C0.984779 8.12975 0.945098 8.25456 0.909938 8.38072L2.35487 8.78343ZM11 19.75C9.49068 19.75 8.41956 19.7489 7.58071 19.6562C6.76026 19.5655 6.23519 19.3932 5.80109 19.0951L4.95194 20.3316C5.66331 20.8201 6.45732 21.0412 7.4159 21.1471C8.3561 21.2511 9.52398 21.25 11 21.25V19.75ZM1.92338 14.5183C2.37977 15.9538 2.7389 17.0867 3.12502 17.9659C3.51784 18.8603 3.96625 19.5601 4.6389 20.0992L5.57692 18.9287C5.16357 18.5974 4.83835 18.1367 4.4984 17.3627C4.15177 16.5734 3.819 15.53 3.35287 14.0638L1.92338 14.5183ZM5.80109 19.0951C5.72443 19.0425 5.64966 18.9869 5.57692 18.9287L4.6389 20.0992C4.7404 20.1805 4.84481 20.2581 4.95194 20.3316L5.80109 19.0951ZM18.6471 14.0638C18.181 15.53 17.8482 16.5734 17.5016 17.3627C17.1617 18.1367 16.8364 18.5974 16.4231 18.9287L17.3611 20.0992C18.0338 19.5601 18.4822 18.8603 18.875 17.9659C19.2611 17.0867 19.6202 15.9538 20.0766 14.5183L18.6471 14.0638ZM11 21.25C12.476 21.25 13.6439 21.2511 14.5841 21.1471C15.5427 21.0412 16.3367 20.8201 17.0481 20.3316L16.1989 19.0951C15.7648 19.3932 15.2397 19.5655 14.4193 19.6562C13.5804 19.7489 12.5093 19.75 11 19.75V21.25ZM16.4231 18.9287C16.3503 18.987 16.2756 19.0425 16.1989 19.0951L17.0481 20.3316C17.1552 20.258 17.2596 20.1805 17.3611 20.0992L16.4231 18.9287ZM15.7208 4.84699C16.9415 5.75338 17.8084 6.39839 18.4348 6.97826C19.0477 7.54574 19.377 8.00416 19.5589 8.51221L20.9711 8.00652C20.6787 7.19005 20.167 6.53788 19.4538 5.87756C18.754 5.22963 17.8095 4.52963 16.615 3.64268L15.7208 4.84699ZM20.0766 14.5183C20.533 13.0827 20.894 11.9506 21.0872 11.0077C21.2838 10.0479 21.3227 9.21558 21.0901 8.38072L19.6451 8.78343C19.7905 9.30503 19.7878 9.87633 19.6177 10.7066C19.4442 11.5536 19.1132 12.5978 18.6471 14.0638L20.0766 14.5183ZM19.5589 8.51221C19.5909 8.60148 19.6196 8.69195 19.6451 8.78343L21.0901 8.38072C21.0549 8.25457 21.0152 8.12975 20.9711 8.00652L19.5589 8.51221ZM16.615 3.64268C15.4207 2.75585 14.4772 2.05401 13.6576 1.57376C12.8229 1.08468 12.0532 0.785848 11.1941 0.753637L11.1379 2.25258C11.6579 2.27208 12.1816 2.44744 12.8993 2.86796C13.632 3.29731 14.5 3.94048 15.7208 4.84699L16.615 3.64268ZM6.27919 4.84699C7.50004 3.94048 8.36797 3.29731 9.10072 2.86796C9.8184 2.44744 10.3421 2.27208 10.8621 2.25258L10.8059 0.753637C9.94676 0.785848 9.1771 1.08468 8.3424 1.57376C7.52277 2.05401 6.57931 2.75585 5.38496 3.64268L6.27919 4.84699ZM11.1941 0.753637C11.0647 0.748788 10.9353 0.748788 10.8059 0.753637L10.8621 2.25258C10.954 2.24914 11.046 2.24914 11.1379 2.25258L11.1941 0.753637ZM9.18871 16.8922H12.8113V15.3922H9.18871V16.8922Z" fill="#8BCD50"/>
</svg>
