<svg width="300" height="270" viewBox="0 0 300 270" fill="none" xmlns="http://www.w3.org/2000/svg">
<path d="M39.623 53.9982C38.882 39.0412 45.5365 20.6424 62.7293 20.0519C93.9 18.9822 110.98 55.8981 139.021 62.7351C158.267 67.4277 170.177 53.8399 184.368 43.8222C199.695 33.0022 216.032 18.2876 236.571 22.9039C249.836 25.8856 257.346 39.3963 258.487 51.8424C259.71 65.1784 253.295 75.8943 254.394 88.6926C255.557 102.265 269.914 108.113 277.007 119.31C285.77 133.145 288.734 149.106 284.483 164.965C280.384 180.26 268.82 195.388 253.901 201.345C233.689 209.418 218.624 197.257 199.838 191.814C173.011 184.04 160.258 198.331 141.552 214.412C129.981 224.36 115.343 233.168 99.2622 230.737C76.7164 227.331 69.7104 196.755 69.5235 177.849C69.4059 165.796 74.8209 151.827 65.9371 142.574C57.4377 133.723 49.1365 134.937 37.5798 134.23C28.3886 133.665 17.58 130.198 14.4906 120.655C13.0536 116.217 13.1848 110.398 16.0025 106.518C23.0064 96.8782 39.4561 96.6607 41.8666 84.6519C43.9034 74.5236 40.1222 64.073 39.623 53.9982Z" fill="#BBE7F2"/>
<path d="M127.197 22.344C131.502 4.8624 91.9081 -9.42427 90.7157 7.74641C90.0803 16.9069 103.553 28.1128 111.715 29.6296C119.227 31.026 125.297 30.0575 127.197 22.344Z" fill="#BBE7F2"/>
<path d="M97.3902 201.59C94.3086 194.474 92.9857 186.819 88.7881 180.275C87.3091 177.743 85.3884 175.497 83.1171 173.642C80.104 171.322 76.7699 171.698 73.4538 170.303C67.3684 167.746 63.9645 160.777 58.1608 157.332C52.351 153.923 45.4809 152.798 38.887 154.174C32.7995 155.43 28.6176 156.15 22.7533 153.611C18.2697 151.67 8.9109 148.481 12.0823 157.007C13.9508 162.032 20.1674 164.461 23.2076 169.099C26.4624 174.069 27.2761 181.35 31.6777 185.559C35.8497 189.553 41.4993 185.131 45.9844 188.84C50.632 192.682 52.0462 197.947 57.8228 201.106C64.0601 204.516 71.4348 205.573 78.4066 205.972C83.3602 206.257 92.9066 206.766 98.5441 204.581C98.1925 203.577 97.8209 202.582 97.3902 201.59Z" fill="#3B8B58"/>
<path d="M45.0252 171.997C60.035 187.925 77.921 198.838 97.7553 202.487C97.6355 202.187 97.52 201.888 97.3902 201.59C94.3086 194.474 92.9857 186.819 88.7881 180.275C87.3091 177.743 85.3884 175.497 83.117 173.642C80.104 171.322 76.7699 171.698 73.4538 170.303C67.3684 167.746 63.9645 160.777 58.1608 157.332C52.351 153.923 45.4809 152.798 38.887 154.174C36.6519 154.684 34.3856 155.046 32.1028 155.257C36.2163 161.299 40.4032 167.091 45.0252 171.997Z" fill="#307147"/>
<path d="M252.329 72.1424C247.484 71.1625 257.223 62.9976 258.616 61.6404C262.197 58.1509 269.012 52.1683 268.181 46.443C267.359 40.7799 261.306 44.9262 257.943 44.044C258.597 40.0688 264.131 36.2114 266.582 33.2468C268.462 30.9725 270.327 28.5193 270.944 25.5197C272.241 19.229 268.131 18.0494 263.389 20.8571C262.695 19.8515 262.923 18.3903 263.047 17.1351C263.372 13.8546 266.015 2.60028 260.441 1.69956C257.498 1.22317 255.021 7.31496 254.101 9.30467C253.066 11.5297 251.714 17.4347 249.679 18.8096C247.468 20.2994 247.433 16.5183 245.019 16.7978C242.406 17.0995 241.778 22.4867 241.439 24.5256C240.834 28.1527 241.273 31.8904 241.665 35.4961C241.886 37.5393 242.763 40.2543 241.551 42.1035C240.199 41.053 238.827 39.3407 237.335 38.4072C233.698 36.1251 232.949 40.1059 232.213 43.2189C230.968 48.4763 231.817 54.1844 231.838 59.5552C231.846 61.4992 232.645 66.4385 231.288 67.7436C228.115 65.3431 223.093 60.3888 221.461 67.2893C220.391 71.8136 220.795 77.1908 221.713 81.6951C223.255 88.6372 225.197 95.4846 227.527 102.203C227.981 101.885 228.427 101.567 228.867 101.248C232.705 98.4671 236.876 96.384 240.818 93.7197C246.255 90.0441 252.299 85.1432 255.651 79.4565C256.495 78.0302 258.85 73.4475 257.879 71.865C256.555 69.7176 253.8 72.4405 252.329 72.1424Z" fill="#3B8B58"/>
<path d="M257.877 71.8657C256.555 69.7177 253.8 72.4405 252.329 72.1424C252.144 72.1052 251.963 72.0478 251.789 71.9712C243.628 78.5558 236.003 85.8186 229.985 94.3793C228.793 96.0757 227.665 97.7966 226.6 99.5419C226.905 100.458 227.214 101.351 227.527 102.201C227.981 101.882 228.427 101.564 228.867 101.246C232.705 98.4643 236.876 96.3812 240.818 93.7168C246.255 90.0412 252.299 85.1404 255.651 79.4537C256.493 78.0274 258.848 73.4482 257.877 71.8657Z" fill="#307147"/>
<path d="M86.3491 129.36C88.5599 121.392 91.364 113.14 92.6791 105.042C93.7488 98.4486 91.1394 91.3919 87.8695 85.8093C85.1781 81.218 79.5142 78.1129 76.9696 73.456C73.7141 67.4954 75.5512 59.3255 73.5764 52.8279C71.4227 45.7477 67.1844 41.0559 61.5355 36.5751C56.5655 32.6313 52.8906 31.2136 49.8397 25.457C47.0798 20.2509 44.1216 13.9131 38.2259 11.5411C24.5333 6.03413 34.668 34.3828 35.1964 39.6153C35.8019 45.6058 33.3893 49.3306 30.7192 54.3505C26.7969 61.7253 26.7477 68.8048 32.4893 75.5584C37.5021 81.4534 42.5705 83.1065 41.3275 91.7328C40.4289 97.9694 39.4647 104.863 41.3553 111.122C43.5497 118.387 47.666 125.191 54.1372 128.945C57.0333 130.595 60.0232 132.075 63.0916 133.377C65.5719 134.447 75.3087 136.06 83.1513 137.222C84.4956 134.723 85.5676 132.088 86.3491 129.36Z" fill="#8BCD50"/>
<path d="M63.0937 133.377C65.5741 134.447 75.3108 136.06 83.1534 137.222C84.1663 135.313 85.0336 133.331 85.7479 131.292C80.1658 120.936 72.4674 111.87 63.1529 104.684C56.4661 99.3071 49.1689 94.7373 41.4123 91.0688C41.3881 91.2871 41.3624 91.5067 41.3296 91.7349C40.431 97.9715 39.4668 104.866 41.3574 111.124C43.5518 118.389 47.6681 125.193 54.1393 128.947C57.0355 130.596 60.0254 132.075 63.0937 133.377Z" fill="#3B8B58"/>
<path d="M276.075 105.118C280.229 90.7647 281.86 75.7992 280.896 60.888C280.476 54.979 280.681 49.0421 281.507 43.1761C279.549 45.1422 277.318 46.9758 276.149 48.2324C272.127 52.5562 267.796 56.684 263.848 61.1576C253.089 73.3426 242.344 86.3684 236.183 101.607C232.141 111.608 229.853 121.83 230.373 132.474C230.644 137.416 231.472 142.311 232.842 147.067C233.282 148.636 233.814 150.831 234.492 153.062C255.335 143.812 269.759 126.981 276.075 105.118Z" fill="#8BCD50"/>
<path d="M238.118 97.2291C237.436 98.6711 236.782 100.126 236.183 101.608C232.141 111.608 229.853 121.831 230.373 132.475C230.644 137.416 231.472 142.312 232.842 147.067C233.282 148.636 233.814 150.831 234.492 153.063C240.666 150.343 246.451 146.815 251.696 142.571C251.162 126.538 246.484 110.917 238.118 97.2291Z" fill="#3B8B58"/>
<path d="M273.656 112.239C260.475 115.276 249.02 121.335 238.301 129.298C235.624 131.284 233.062 133.42 230.626 135.695C231.041 139.542 231.782 143.346 232.842 147.067C233.282 148.636 233.814 150.831 234.492 153.063C253.01 144.841 266.455 130.637 273.656 112.239Z" fill="#3B8B58"/>
<path d="M58.2585 110.592C46.5948 101.386 34.1039 94.4506 19.6175 91.2029C15.3964 90.2566 7.18862 90.4356 0 89.2211C14.4593 104.76 21.2314 129.387 33.2246 146.274C48.5018 167.79 68.9188 182.672 93.4236 186.767C90.7685 156.908 84.2995 131.141 58.2585 110.592Z" fill="#8BCD50"/>
<path d="M238.299 135.765C249.417 127.506 261.321 121.284 275.13 118.37C279.153 117.521 286.976 117.682 293.828 116.592C280.045 130.533 273.591 152.627 262.164 167.78C247.602 187.083 228.142 200.434 204.785 204.109C207.314 177.317 213.481 154.2 238.299 135.765Z" fill="#8BCD50"/>
<path d="M204.78 204.109C218.082 201.987 230.665 196.65 241.437 188.562C250.993 169.921 254.026 148.616 250.053 128.05C245.981 130.382 242.055 132.958 238.295 135.766C213.481 154.2 207.314 177.317 204.78 204.109Z" fill="#59A960"/>
<path d="M107.927 189.87C102.15 187.103 96.1314 182.252 92.105 178.844C77.7484 166.692 66.2559 151.568 55.1413 136.943C53.7692 135.136 52.3952 133.332 51.0193 131.53C46.1677 125.006 40.7858 118.893 34.9283 113.254C34.3842 112.74 33.8165 112.198 33.2288 111.637C28.6176 107.234 22.8781 101.753 17.4617 99.3978L17.7262 98.7881C23.2511 101.191 29.0383 106.716 33.6874 111.156C34.2743 111.717 34.8413 112.258 35.3847 112.771C41.268 118.434 46.6738 124.573 51.547 131.125C52.9258 132.928 54.3003 134.733 55.6705 136.54C66.7636 151.137 78.2341 166.232 92.535 178.337C96.5322 181.722 102.509 186.539 108.214 189.27L107.927 189.87Z" fill="#59A960"/>
<path d="M81.7328 131.001C81.1395 125.246 79.6573 119.618 77.339 114.318C73.4637 105.689 69.0664 98.9478 63.5095 93.0992C58.6543 87.9916 54.635 83.1271 54.6271 75.3052C54.6271 73.5744 54.6664 71.8307 54.7063 70.1448C54.8347 64.7683 54.9545 59.6892 53.822 54.486C51.8401 45.3861 47.1803 37.9508 42.2474 30.0796L42.5056 29.8657L42.7866 29.6895L42.5056 29.8657L42.8108 29.7281C47.7758 37.6505 52.4648 45.1323 54.4717 54.3455C55.6213 59.6272 55.4936 64.9823 55.3717 70.1619C55.331 71.8436 55.2896 73.5851 55.2911 75.3066C55.2996 82.8832 59.237 87.64 63.9916 92.6421C69.6056 98.547 74.0393 105.348 77.9467 114.047C80.2938 119.409 81.7947 125.104 82.396 130.926L81.7328 131.001Z" fill="#3B8B58"/>
<path d="M224.148 122.971L223.496 122.835C224.079 120.032 224.39 117.236 224.691 114.532C225.002 110.64 225.685 106.787 226.729 103.024C227.36 100.981 227.941 99.129 228.655 97.1485C229.478 94.8664 230.252 92.4973 231.002 90.2059C232.153 86.6808 233.346 83.0351 234.786 79.4743C236.092 76.2437 237.721 72.9532 239.296 69.7754C240.964 66.405 242.69 62.9205 244.032 59.5059C245.261 56.3816 246.2 53.1104 247.108 49.9496C248.217 45.6555 249.675 41.4591 251.467 37.4024C253.69 32.7141 254.69 28.2119 255.746 23.4459C256.187 21.459 256.643 19.4051 257.197 17.3313L257.838 17.5024C257.289 19.5627 256.834 21.6102 256.394 23.5899C255.325 28.3937 254.32 32.9323 252.065 37.6876C250.288 41.7116 248.843 45.8739 247.744 50.1329C246.832 53.3115 245.889 56.5984 244.648 59.7527C243.293 63.1958 241.563 66.6931 239.889 70.0756C238.32 73.2463 236.695 76.5254 235.396 79.7332C233.965 83.2726 232.777 86.9076 231.628 90.422C230.877 92.7177 230.102 95.0918 229.274 97.3839C228.565 99.35 227.986 101.195 227.356 103.232C226.191 106.999 225.779 110.699 225.343 114.617C225.049 117.325 224.737 120.137 224.148 122.971Z" fill="#307147"/>
<path d="M224.642 161.774L224.214 161.263C226.236 159.589 227.42 157.139 228.565 154.769C229.328 153.042 230.266 151.397 231.364 149.86C231.953 149.096 232.525 148.417 233.075 147.762C234.429 146.273 235.594 144.624 236.546 142.852C238.622 138.564 240.208 134.056 241.276 129.413C241.648 127.955 242.009 126.476 242.372 124.988C243.775 119.236 245.225 113.287 247.498 108.098L248.432 105.958C251.558 98.7745 254.79 91.3456 259.621 85.1889C264.028 79.5877 267.735 73.4694 270.66 66.9698L271.261 67.2551C268.315 73.7997 264.582 79.9601 260.143 85.5997C255.365 91.6886 252.151 99.0783 249.042 106.223L248.108 108.363C245.858 113.498 244.414 119.417 243.018 125.144C242.655 126.634 242.294 128.116 241.92 129.576C240.842 134.267 239.239 138.821 237.142 143.154C236.17 144.972 234.977 146.665 233.592 148.193C233.043 148.842 232.476 149.514 231.895 150.267C230.826 151.768 229.913 153.374 229.168 155.06C227.992 157.492 226.775 160.009 224.642 161.774Z" fill="#3B8B58"/>
<path d="M194.465 217.649L194.118 217.078C195.18 216.38 196.043 215.42 196.625 214.29C196.95 213.747 197.302 213.222 197.682 212.716C201.177 208.178 204.558 203.542 207.825 199.058C212.745 192.303 217.835 185.319 223.387 178.6C226.4 174.951 230.077 172.003 233.632 169.152C237.144 166.336 240.776 163.424 243.675 159.886L245.237 157.979C251.901 149.837 258.196 142.147 265.411 134.691L265.889 135.153C258.693 142.59 252.411 150.272 245.752 158.402L244.189 160.309C241.246 163.901 237.587 166.835 234.049 169.672C230.511 172.508 226.87 175.428 223.899 179.024C218.361 185.728 213.278 192.704 208.362 199.451C205.092 203.938 201.712 208.579 198.209 213.124C197.843 213.611 197.503 214.118 197.19 214.642C196.555 215.861 195.616 216.897 194.465 217.649Z" fill="#59A960"/>
<path d="M115.61 211.4C114.656 210.488 113.746 209.606 112.869 208.755C105.717 201.814 100.55 196.8 89.9484 194.763C88.6904 194.521 87.3511 194.32 86.056 194.126C83.1896 193.791 80.3616 193.185 77.61 192.314C74.1199 191.068 71.5254 188.574 69.0151 186.161C66.6659 183.903 64.4509 181.77 61.5362 180.537C59.6027 179.751 57.615 179.106 55.5885 178.606C51.6112 177.536 48.1773 176.614 44.3413 172.287C43.5982 171.45 42.8108 170.41 41.9771 169.31C38.4748 164.686 34.1182 158.931 28.2082 161.381L27.9536 160.767C34.3364 158.119 38.8649 164.103 42.5077 168.909C43.3336 169.998 44.1123 171.028 44.8383 171.846C48.5418 176.024 51.8872 176.924 55.7603 177.964C57.8159 178.472 59.8318 179.128 61.7922 179.928C64.816 181.212 67.1844 183.484 69.4736 185.685C71.9326 188.049 74.4757 190.492 77.8311 191.692C80.5422 192.546 83.3281 193.142 86.1515 193.471C87.4538 193.667 88.7995 193.869 90.0739 194.113C100.87 196.188 106.097 201.26 113.332 208.281C114.209 209.131 115.115 210.012 116.069 210.919L115.61 211.4Z" fill="#307147"/>
<path d="M242.739 141.867C249.289 90.7012 213.121 43.9132 161.955 37.3633C110.789 30.8133 64.0012 66.9817 57.4512 118.148C50.9012 169.313 87.0696 216.101 138.235 222.651C189.401 229.201 236.189 193.033 242.739 141.867Z" fill="#4D7ABB"/>
<path d="M145.983 50.3141C145.246 51.863 143.065 51.331 142.453 52.5676C141.455 54.6023 142.559 56.5043 142.925 58.4383C143.744 62.8064 144.986 64.5487 140.552 67.1481C136.344 69.6142 135.126 67.8855 135.327 73.7898C135.393 75.8372 137.281 75.9292 136.078 78.1579C135.698 78.8553 132.74 79.1748 131.936 80.3116C129.562 83.6891 133.219 88.1107 132.301 91.807C131.211 96.1815 128.052 95.4833 125.174 97.7369C119.629 102.072 121.292 112.75 114.77 115.907C112.19 117.157 105.914 115.734 104.112 113.697C101.353 110.585 103.347 106.955 104.717 103.896C106.526 99.8478 106.937 99.0106 104.823 95.0811C104.052 93.6512 102.849 93.2126 102.284 91.3177C101.686 89.3038 102.829 87.0096 101.932 85.0156C101.213 83.4331 99.1502 83.3133 98.5341 82.0203C97.6234 80.139 98.3144 78.0851 97.4572 76.3093C97.0514 75.4721 95.7014 73.006 94.5782 72.7928C91.334 72.188 93.2753 74.6341 92.1449 76.3093C87.4181 83.3104 82.538 75.5848 75.6767 78.1179C73.9568 78.8568 72.3003 79.7352 70.7238 80.7445C78.0037 69.0141 87.7932 59.0432 99.3878 51.549C110.982 44.0547 124.094 39.2236 137.779 37.4031C141.343 41.4117 149.142 43.6796 145.983 50.3141Z" fill="#79C0C4"/>
<path d="M169.202 152.291C165.271 141.969 159.227 150.627 152.853 145.46C151.035 143.987 151.276 141.162 148.639 140.311C145.801 139.394 142.044 141.863 138.712 141.537C130.282 140.711 126.553 144.781 124.193 153.379C122.989 157.772 122.406 159.782 126.023 162.83C127.45 164.031 129.738 164.361 130.979 165.722C132.459 167.342 132.115 169.627 133.283 171.187C135.154 173.69 138.887 174.066 141.143 176.854C142.147 178.094 142.076 180.146 143.313 181.459C144.635 182.864 146.82 182.672 148.404 184.231C152.521 188.29 153.211 194.087 153.006 199.247C152.727 206.241 157.263 208.497 164.158 207.876C165.703 202.437 168.066 205.077 172.011 203.12C175.304 201.487 177.107 196.76 177.793 193.44C178.649 189.313 178.117 188.771 181.182 185.107C183.59 182.223 185.764 179.383 186.021 175.535C186.419 169.55 184.053 170.4 180.699 167.815C178.378 166.026 176.601 163.315 174.405 161.5C172.546 159.963 172.117 160.43 170.91 158.113C170.054 156.465 169.902 154.128 169.202 152.291Z" fill="#79C0C4"/>
<path d="M243.495 130.007C243.51 143.154 240.743 156.155 235.375 168.156C234.105 168.144 232.968 168.123 232.15 168.156C228.188 168.309 224.162 166.787 221.958 163.343C220.781 161.515 221.698 159.328 219.538 157.606C218.102 156.465 215.921 157.087 214.246 156.542C208.449 154.64 211.221 152.613 210.37 148.311C209.645 144.674 204.765 142.627 201.175 143.85C197.89 144.974 197.159 149.508 193.43 149.308C189.088 149.076 188.517 144.01 187.626 141.058C186.083 135.952 186.588 135.282 181.695 137.065C180.251 137.668 178.841 138.351 177.473 139.113C176.237 140.642 177.533 142.955 176.503 144.462C174.216 147.798 170.34 143.012 169.343 140.066C168.724 138.258 169.336 136.118 168.758 134.275C168.259 132.674 166.417 132.042 165.945 130.413C164.157 124.28 168.838 125.52 171.53 122.562C176.111 117.528 169.735 117.655 166.318 119.643C164.476 120.72 164.084 122.15 161.967 122.668C160.172 123.107 158.105 121.963 156.15 122.176C154.225 122.382 153.517 123.711 151.323 123.638C148.458 123.545 149.189 122.395 147.102 121.584C142.501 119.796 140.42 122.389 135.913 121.63C134.941 117.688 139.303 114.843 142.235 113.592C144.183 112.762 146.097 112.879 147.813 111.897C149.641 110.847 149.874 109.052 152.294 108.26C156.204 106.977 160.306 106.731 163.909 104.766C166.74 103.217 169.334 98.6091 163.51 97.9045C164.56 91.0967 156.256 96.1929 153.763 96.0766C146.244 95.7108 152.181 90.3058 155.658 88.1913C157.593 87.0074 159.714 86.0175 161.595 85.0334C164.02 83.7568 164.686 82.9125 166.688 81.4163C173.309 76.4769 170.651 83.3118 176.414 83.5379C175.603 90.6844 180.278 88.4302 183.767 85.4057C184.639 84.6476 185.137 82.5937 186.267 82.1144C187.464 81.6095 188.221 82.9923 188.687 82.8925C190.709 82.4465 192.758 82.1311 194.82 81.9483C194.515 79.6212 192.647 75.5391 194.017 73.3904C194.594 72.4733 197.307 72.8056 198.271 71.8614C200.073 70.0999 199.76 69.6941 200.205 67.4997C201.003 63.6237 199.581 62.733 202.612 59.8746C204.143 58.5376 205.823 57.382 207.619 56.4308C218.803 65.1568 227.848 76.3201 234.065 89.0705C240.282 101.821 243.508 115.822 243.495 130.007Z" fill="#79C0C4"/>
<path d="M115.493 187.038C115.992 194.741 111.558 190.541 106.738 192.557C106.847 194.619 106.627 196.686 106.086 198.679C100.887 201.247 101.472 205.526 102.011 210.095C95.7155 206.307 89.8888 201.79 84.6511 196.638C84.5648 195.728 84.472 194.81 84.3522 193.9C84.2531 193.135 85.6816 192.916 85.2793 191.598C85.146 191.17 83.6305 190.449 83.2989 189.664C82.4139 187.556 81.623 187.271 81.4697 184.718C81.2443 180.835 84.435 177.63 84.8928 174.08C85.1317 172.192 83.7817 170.729 83.9015 168.755C84.0085 167.044 85.0255 165.776 85.2779 164.001C82.227 162.891 79.833 162.253 77.7056 160.119C75.3386 162.32 69.9001 159.068 67.4205 158.59C63.6635 157.877 60.5128 157.42 59.6221 152.38C59.5287 152.327 59.4359 152.281 59.3489 152.238V152.231C55.2847 135.5 55.8898 117.975 61.0983 101.564C65.1198 102.069 63.8796 101.451 65.9649 99.0377C67.414 97.3625 75.4449 87.0837 76.7215 95.1082C79.972 94.9556 86.3491 95.474 84.8785 100.513C83.975 103.592 78.157 103.299 76.0233 106.816C73.6035 110.805 75.6317 112.201 78.5764 115.034C82.9309 119.222 82.891 119.295 84.7587 114.178C85.5375 112.044 83.2975 111.691 86.322 110.684C88.3495 110.005 89.6988 110.997 91.0424 112.233C92.8966 113.945 92.1392 115.75 94.5725 117.332C96.1678 118.376 98.1026 117.891 99.872 118.402C102.803 119.253 109.785 123.421 107.031 127.523C104.738 130.934 98.3023 125.994 96.4474 128.069C96.3212 128.108 96.1949 128.14 96.0744 128.175C96.3475 132.177 101.7 132.37 101.247 136.259C97.8437 136.432 92.5115 135.149 90.2978 137.776C88.4365 139.983 90.1552 147.475 88.6426 148.818C86.2093 150.973 81.1694 148.099 78.9351 147.096C77.3134 146.364 76.2558 144.982 74.2218 145.035C72.6678 145.687 71.1634 146.451 69.7204 147.322C68.411 150.586 73.371 154.449 76.2629 155.087C79.4721 155.792 81.8255 152.867 85.7308 154.828C89.3401 156.643 88.7817 159.722 93.5812 160.533C96.3625 160.998 102.557 159.729 104.711 161.597C106.899 163.491 105.409 165.725 107.011 167.919C108.268 169.631 110.801 169.689 112.483 170.187C116.599 171.4 120.474 172.414 120.594 177.873C113.486 179.048 115.129 181.314 115.493 187.038Z" fill="#79C0C4"/>
<g style="mix-blend-mode:multiply" opacity="0.5">
<path d="M217.559 65.4173C225.374 85.5584 225.966 107.786 219.235 128.315C212.503 148.843 198.863 166.404 180.639 178.006C162.414 189.609 140.732 194.535 119.283 191.947C97.8343 189.358 77.9459 179.415 63.0046 163.811C68.0027 176.69 75.7953 188.3 85.821 197.805C95.8467 207.31 107.856 214.472 120.983 218.777C134.11 223.081 148.029 224.42 161.736 222.697C175.443 220.974 188.598 216.232 200.252 208.813C211.905 201.394 221.768 191.482 229.13 179.792C236.492 168.102 241.169 154.925 242.824 141.209C244.48 127.494 243.072 113.582 238.703 100.476C234.334 87.3698 227.113 75.3961 217.559 65.4173Z" fill="#00BBFF"/>
</g>
<path d="M261.381 96.307C257.728 76.4334 243.576 85.3636 243.576 85.3636C223.717 66.6454 220.291 90.8428 220.291 90.8428C211.163 87.4196 208.65 96.3213 208.65 96.3213C196.046 93.2697 192.157 99.8557 191.106 105.908H275.34C272.992 91.4311 261.381 96.307 261.381 96.307Z" fill="white"/>
<path d="M76.725 110.568C74.4294 98.0763 65.5327 103.689 65.5327 103.689C53.0525 91.9218 50.8973 107.133 50.8973 107.133C45.1578 104.98 43.5796 110.576 43.5796 110.576C35.6579 108.658 33.2132 112.798 32.5535 116.603H85.499C84.0228 107.503 76.725 110.568 76.725 110.568Z" fill="white"/>
<path d="M107.709 57.1939C104.785 41.2905 93.4614 48.4356 93.4614 48.4356C77.5694 33.4593 74.8287 52.8201 74.8287 52.8201C67.5217 50.0801 65.5128 57.2039 65.5128 57.2039C55.428 54.7627 52.3151 60.033 51.4764 64.8767H118.879C117.001 53.2943 107.709 57.1939 107.709 57.1939Z" fill="white"/>
<path opacity="0.3" d="M115.978 102.661C103.168 119.085 86.1273 127.21 77.9181 120.806C69.709 114.403 73.4381 95.8969 86.2492 79.4722C99.0604 63.0475 116.101 54.9246 124.31 61.3273C132.52 67.7301 128.789 86.2358 115.978 102.661Z" fill="white"/>
<path d="M299.164 232.014C299.164 234.692 288.155 236.863 274.573 236.863C260.992 236.863 249.984 234.692 249.984 232.014C249.984 229.336 260.993 227.164 274.573 227.164C288.153 227.164 299.164 229.335 299.164 232.014Z" fill="#BBE7F2"/>
<path d="M257.718 208.574L263.281 195.991L256.078 190.185L250.15 206.426C250.15 206.426 248.709 209.529 254.358 213.518L265.513 224.369L268.982 222.71C268.982 222.71 261.448 212.234 257.718 208.574Z" fill="#0A3C5F"/>
<path d="M265.515 224.369L266.433 225.504L258.053 230.3L257.81 231.335L272.537 229.267L270.431 224.371L268.985 222.712L265.515 224.369Z" fill="#FDB18D"/>
<path d="M265.842 224.774L266.433 225.504L270.426 224.369L269.469 223.27L265.842 224.774Z" fill="white"/>
<path d="M258.053 230.3L257.81 231.335L272.537 229.267L270.431 224.371L266.438 225.506L258.053 230.3Z" fill="#0D134F"/>
<path d="M272.534 229.265L272.015 228.058L258.053 230.3L257.81 231.335L272.534 229.265Z" fill="#62C1C5"/>
<path d="M255.904 191.22L260.183 202.999L263.279 195.991L256.29 190.353L255.904 191.22Z" fill="#0D134F"/>
<path d="M221.342 151.622C221.342 151.622 220.979 150.734 221.342 148.475C221.342 148.475 220.736 143.635 222.028 145.249V144.24C222.028 144.24 220.979 142.465 221.604 141.497L222.028 141.941C221.867 141.498 221.867 141.012 222.028 140.569C222.333 141.054 222.59 141.567 222.795 142.102L223.08 143.956L223.201 146.095C223.201 146.095 223.486 150.008 223.767 150.614C223.767 150.614 231.149 154.809 233.287 155.334L233.691 158.884L221.342 151.622Z" fill="#F09474"/>
<path d="M233.688 158.884L233.284 155.334C231.144 154.809 223.764 150.614 223.764 150.614L222.657 152.397L233.688 158.884Z" fill="white"/>
<path d="M223.639 152.971L233.945 159.04L233.734 155.52C232.023 155.102 226.504 152.145 224.547 151.055L223.639 152.971Z" fill="#F8A510"/>
<path d="M240.91 162.06C242.394 162.134 243.839 162.563 245.124 163.31L247.133 161.052L244.452 158.293L241.122 159.269L240.91 162.06Z" fill="#F09474"/>
<path d="M246.001 159.889L245.33 159.044L242.504 162.009L243.085 162.95L245.782 161.368L246.001 159.889Z" fill="white"/>
<path d="M245.141 156.323C245.141 156.323 243.916 147.852 236.962 150.404C236.962 150.404 230.301 152.251 235.251 162.389L236.474 161.785C236.474 161.785 238.123 164.454 239.53 163.685L244.759 158.621L245.141 156.323Z" fill="#FDB18D"/>
<path d="M242.885 154.683L239.295 151.754L233.845 153.428C233.247 154.968 233.153 157.241 234.449 160.565L242.885 154.683Z" fill="#F09474"/>
<path d="M245.141 156.323C245.141 156.323 243.916 147.852 236.962 150.404C236.962 150.404 232.419 151.663 233.627 157.813C233.631 157.813 234.387 158.305 236.738 157.326C237.249 157.487 237.72 157.754 238.119 158.111C238.519 158.467 238.838 158.905 239.055 159.394L239.894 158.887C239.894 158.887 238.824 156.298 239.909 155.464L241.309 155.764C241.309 155.764 242.23 157.949 243.846 158.02L244.907 157.743L245.141 156.323Z" fill="#0A3C5F"/>
<path d="M239.055 159.397L239.894 158.89C239.894 158.89 238.824 156.301 239.909 155.467L241.309 155.767C241.309 155.767 242.23 157.952 243.846 158.023L244.907 157.745L245.141 156.319C245.141 156.319 244.54 152.189 241.809 150.568C241.004 152.183 239.83 153.586 238.382 154.663C236.933 155.739 235.251 156.459 233.472 156.763C233.506 157.096 233.554 157.445 233.627 157.811C233.631 157.811 234.387 158.303 236.738 157.325C237.249 157.486 237.72 157.754 238.12 158.111C238.52 158.468 238.838 158.907 239.055 159.397Z" fill="#0D134F"/>
<path d="M241.437 156.034C241.828 156.991 241.659 157.966 241.06 158.21C240.461 158.454 239.659 157.878 239.268 156.922C238.877 155.965 239.044 154.99 239.643 154.745C240.242 154.501 241.044 155.076 241.437 156.034Z" fill="#FDB18D"/>
<path d="M240.159 166.878L270.194 213.312L286.815 226.055L290.471 223.84L276.731 210.099L265.315 183.394L250.082 162.231L246.001 159.889L240.159 166.878Z" fill="#0A3C5F"/>
<path d="M246.001 159.889L240.158 166.878L255.902 191.22C259.917 189.896 263.281 187.1 265.316 183.394L250.083 162.231L246.001 159.889Z" fill="#FDD247"/>
<path d="M245.34 168.108C245.192 167.271 244.846 166.482 244.33 165.806C243.815 165.13 243.146 164.587 242.378 164.223L240.159 166.877L241.449 168.874C242.784 168.881 244.107 168.621 245.34 168.108Z" fill="#F8A510"/>
<path d="M219.169 150.095C219.169 150.095 231.029 154.768 231.987 157.403C231.987 157.403 239.774 160.755 244.087 160.755C244.087 160.755 248.759 161.234 247.202 166.746C247.202 166.746 246.004 170.341 238.816 166.148L228.993 160.876C228.993 160.876 219.409 153.929 217.133 151.053C217.133 151.053 215.453 149.524 216.42 145.288C216.42 145.288 216.42 141.052 217.146 141.58C217.146 141.58 216.823 139.583 217.671 139.583C218.087 140.37 218.451 141.185 218.758 142.022L218.838 143.595C219.117 144.334 219.294 145.108 219.364 145.894C219.418 147.298 219.352 148.703 219.169 150.095Z" fill="#FDB18D"/>
<path d="M247.202 166.747C248.759 161.236 244.087 160.756 244.087 160.756C239.774 160.756 231.987 157.405 231.987 157.405C231.029 154.766 219.169 150.097 219.169 150.097L217.85 151.857C220.946 155.045 228.993 160.878 228.993 160.878L238.816 166.151C246.001 170.342 247.202 166.747 247.202 166.747Z" fill="white"/>
<path d="M218.631 152.619C222.116 155.891 228.993 160.877 228.993 160.877L238.816 166.149C246.004 170.342 247.202 166.747 247.202 166.747C248.759 161.236 244.087 160.756 244.087 160.756C239.774 160.756 231.987 157.405 231.987 157.405C231.173 155.165 222.49 151.456 219.899 150.393L218.631 152.619Z" fill="#FDD247"/>
<path d="M286.815 226.056L287.805 227.017L279.539 231.456L279.391 232.417L293.626 231.456L294.353 227.721L290.473 223.84L286.815 226.056Z" fill="#FDB18D"/>
<path d="M287.203 226.433L287.805 227.017L292.688 226.055L290.88 224.248L287.203 226.433Z" fill="white"/>
<path d="M292.687 226.056L287.805 227.017L279.538 231.456L279.391 232.417L293.625 231.456L294.353 227.721L292.687 226.056Z" fill="#0D134F"/>
<path d="M293.625 231.455L293.859 230.254L279.538 231.457L279.391 232.419L293.625 231.455Z" fill="#62C1C5"/>
<path d="M167.31 255.61C167.31 258.289 150.149 260.459 128.978 260.459C107.807 260.459 90.6487 258.289 90.6487 255.61C90.6487 252.931 107.81 250.76 128.978 250.76C150.146 250.76 167.31 252.932 167.31 255.61Z" fill="#BBE7F2"/>
<path d="M145.537 231.036H108.65V232.991H145.537V231.036Z" fill="#F8A510"/>
<path d="M144.91 231.036H141.982L142.893 232.991H145.537V232.38L144.91 231.036Z" fill="#0D134F"/>
<path d="M129.234 195.365H111.075V197.321H129.234V195.365Z" fill="#0D134F"/>
<path d="M123.08 181.035L122.153 184.611L103.737 255.61H100.987L120.385 180.829L120.504 180.37C120.594 180.029 120.814 179.737 121.118 179.557C121.422 179.378 121.785 179.326 122.127 179.412C122.301 179.459 122.464 179.539 122.607 179.65C122.75 179.76 122.869 179.897 122.958 180.054C122.991 180.12 123.025 180.196 123.052 180.268C123.135 180.516 123.145 180.782 123.08 181.035Z" fill="#FDD247"/>
<path d="M121.697 180.27C121.671 180.199 121.638 180.124 121.605 180.056L121.327 179.462C121.129 179.537 120.951 179.658 120.808 179.816C120.666 179.974 120.564 180.164 120.51 180.369L120.391 180.828L119.906 182.696L120.801 184.609L121.673 186.484L122.16 184.609L122.717 182.453L121.697 180.27Z" fill="#F8A510"/>
<path d="M138.381 201.159H126.597V202.466H138.381V201.159Z" fill="#0D134F"/>
<path d="M142.253 209.677H130.469V210.984H142.253V209.677Z" fill="#0D134F"/>
<path d="M146.125 218.195H134.342V219.502H146.125V218.195Z" fill="#0D134F"/>
<path d="M149.998 226.714H138.214V228.021H149.998V226.714Z" fill="#0D134F"/>
<path d="M153.869 235.231H142.085V236.539H153.869V235.231Z" fill="#0D134F"/>
<path d="M157.742 243.749H145.958V245.057H157.742V243.749Z" fill="#0D134F"/>
<path d="M140.334 133.002C140.443 132.281 139.794 130.311 138.765 130.698C138.464 130.812 138.409 131.089 138.417 131.384C138.447 132.085 138.732 132.751 139.218 133.256C139.661 133.644 140.24 133.65 140.334 133.002Z" fill="#F09474"/>
<path d="M146.954 133.002C146.846 132.281 147.495 130.311 148.523 130.698C148.824 130.812 148.879 131.089 148.872 131.384C148.842 132.085 148.557 132.75 148.071 133.256C147.629 133.644 147.052 133.65 146.954 133.002Z" fill="#F09474"/>
<path d="M148.875 128.833C148.877 128.027 148.691 127.232 148.334 126.509C147.976 125.787 147.456 125.157 146.813 124.67C146.171 124.183 145.425 123.851 144.633 123.701C143.84 123.551 143.024 123.587 142.248 123.806C141.473 124.024 140.758 124.42 140.161 124.962C139.564 125.503 139.1 126.176 138.807 126.927C138.514 127.678 138.399 128.486 138.471 129.289C138.543 130.092 138.801 130.868 139.223 131.554H139.22C140.101 133.154 140.644 134.917 140.815 136.735H146.075C146.626 134.961 147.305 133.23 148.106 131.554H148.103C148.607 130.736 148.875 129.794 148.875 128.833Z" fill="#FDB18D"/>
<path d="M167.31 139.344C167.31 139.344 167.737 137.331 167.951 136.742C168.466 135.945 169.155 135.276 169.967 134.786L170.495 136.671C170.495 136.671 168.789 139.519 167.31 139.344Z" fill="#FDB18D"/>
<path d="M170.301 141.876H169.635V129.567L181.171 122.65V119.453H169.967V118.787H181.837V123.031L170.301 129.949V141.876Z" fill="#FDD247"/>
<path d="M169.967 141.878C169.703 141.878 169.449 141.773 169.261 141.586C169.074 141.399 168.969 141.145 168.969 140.88V133.099C168.969 132.835 169.074 132.581 169.261 132.394C169.449 132.206 169.703 132.101 169.967 132.101C170.232 132.101 170.486 132.206 170.673 132.394C170.861 132.581 170.966 132.835 170.966 133.099V140.881C170.966 141.145 170.86 141.399 170.673 141.586C170.486 141.773 170.232 141.878 169.967 141.878Z" fill="#F8A510"/>
<path d="M127.358 150.235C127.358 150.235 128.731 153.755 133.599 154.514C133.599 154.513 133.15 147.675 127.358 150.235Z" fill="#0A3C5F"/>
<path d="M151.408 164.446C151.408 164.446 149.303 207.294 148.527 214.88H144.209L139.666 163.747C139.666 163.747 146.087 158.907 151.408 164.446Z" fill="#0A3C5F"/>
<path d="M140.358 171.633L141.063 179.654C143.859 177.24 146.192 174.337 147.948 171.087L140.358 171.633Z" fill="#0D134F"/>
<path d="M135.009 137.189L139.884 135.527C139.884 135.527 145.187 134.635 147.641 135.527L154.29 138.741C154.481 141.846 154.963 144.926 155.73 147.94L151.408 164.449L136.56 163.564L134.123 146.388L135.009 137.189Z" fill="#FDD247"/>
<path d="M137.458 144.295L134.2 145.61L134.128 146.386L135.54 156.327C138.28 150.974 137.458 144.295 137.458 144.295Z" fill="#F8A510"/>
<path d="M151.408 164.446C151.408 164.446 152.775 174.096 132.047 177.346L135.771 197.844H131.396L122.375 173.387L136.461 166.46L136.559 163.561L151.408 164.446Z" fill="#0A3C5F"/>
<path d="M131.396 197.843L123.919 199.972V201.158H136.025L135.771 197.843H131.396Z" fill="#0D134F"/>
<path d="M136.025 201.159L135.933 199.973H123.92V201.159H136.025Z" fill="white"/>
<path d="M144.209 214.88L136.674 217.012V218.198H148.78L148.525 214.883L144.209 214.88Z" fill="#0D134F"/>
<path d="M148.782 218.195L148.691 217.012H136.674V218.198L148.782 218.195Z" fill="white"/>
<path d="M135.009 137.189C135.009 137.189 137.812 140.024 136.025 147.01L131.192 157.755L121.66 171.837H113.112C114.041 170.833 115.178 170.044 116.444 169.526C117.711 169.008 119.075 168.775 120.442 168.842C120.442 168.842 131.534 139.696 135.009 137.189Z" fill="#FDB18D"/>
<path d="M127.358 150.235C128.727 150.148 130.086 150.522 131.217 151.298C132.349 152.073 133.187 153.206 133.599 154.514C133.599 154.514 141.45 142.013 135.009 137.19C135.009 137.189 131.623 138.159 127.358 150.235Z" fill="#FDD247"/>
<path d="M159.304 141.55L163.178 142.192L167.31 139.346C167.31 139.346 168.714 136.016 170.964 134.502C170.964 134.502 172.89 135.581 171.767 139.432L168.954 141.164L164.329 146.703C164.329 146.703 158.439 146.917 158.481 147.048C158.523 147.179 159.304 141.55 159.304 141.55Z" fill="#FDB18D"/>
<path d="M154.289 138.741L160.383 141.4C160.383 141.4 162.148 145.641 160.043 147.857L155.729 147.937C155.729 147.937 151.408 143.172 154.289 138.741Z" fill="#FDD247"/>
<path d="M153.844 155.147C148.609 160.294 139.602 161.459 136.3 161.716L136.562 163.561L151.41 164.446L153.844 155.147Z" fill="#F8A510"/>
<path d="M160.988 145.894C159.402 145.845 157.831 145.569 156.324 145.073C156.078 145.976 155.73 147.937 155.73 147.937L160.045 147.857C160.546 147.31 160.875 146.627 160.988 145.894Z" fill="#F8A510"/>
<path d="M178.859 120.353C178.859 120.713 178.715 121.06 178.46 121.315C178.205 121.57 177.859 121.713 177.498 121.713H162.437C162.076 121.713 161.731 121.57 161.476 121.314C161.221 121.059 161.077 120.713 161.077 120.353V117.884C161.097 117.583 161.185 117.292 161.334 117.03C161.483 116.769 161.689 116.545 161.937 116.375H176.997C178.249 116.523 178.859 117.132 178.859 117.884V120.353Z" fill="#E9F9F9"/>
<path d="M177.498 119.855H162.437C162.259 119.855 162.082 119.82 161.917 119.752C161.752 119.683 161.602 119.583 161.475 119.456C161.349 119.33 161.249 119.18 161.181 119.015C161.112 118.85 161.077 118.673 161.077 118.494V120.353C161.077 120.713 161.221 121.059 161.476 121.314C161.731 121.57 162.076 121.713 162.437 121.713H177.498C177.859 121.713 178.205 121.57 178.46 121.315C178.715 121.06 178.859 120.713 178.859 120.353V118.494C178.859 118.855 178.716 119.201 178.46 119.457C178.205 119.712 177.859 119.855 177.498 119.855Z" fill="#ADCCCC"/>
<path d="M148.103 131.554C148.589 130.764 148.856 129.859 148.875 128.932C148.895 128.004 148.666 127.088 148.214 126.279C147.762 125.469 147.101 124.795 146.301 124.325C145.501 123.856 144.591 123.609 143.663 123.609C142.736 123.609 141.825 123.856 141.025 124.325C140.225 124.795 139.565 125.469 139.112 126.279C138.66 127.088 138.431 128.004 138.451 128.932C138.471 129.859 138.737 130.764 139.223 131.554H139.22C139.22 131.554 139.372 131.803 139.581 132.249C140.154 132.796 140.673 133.398 141.13 134.046H146.092C146.575 133.624 147.732 132.307 147.732 132.306C147.856 132.037 147.981 131.782 148.105 131.554H148.103Z" fill="#0A3C5F"/>
<path d="M147.738 125.586C147.617 126.216 147.464 126.839 147.278 127.453C146.924 128.186 146.394 128.821 145.734 129.3C144.444 130.14 142.896 130.491 141.369 130.291C140.306 130.158 139.3 129.73 138.467 129.057C138.502 129.94 138.762 130.799 139.223 131.553H139.22C139.22 131.553 139.372 131.802 139.581 132.247C140.154 132.795 140.673 133.397 141.13 134.044H146.092C146.575 133.622 147.732 132.306 147.732 132.304C147.856 132.035 147.981 131.781 148.105 131.553H148.101C148.663 130.642 148.929 129.58 148.864 128.512C148.799 127.444 148.405 126.422 147.736 125.586L147.738 125.586Z" fill="#0D134F"/>
<path d="M158.177 255.61H155.244L122.154 184.611L120.385 180.831L118.464 176.702H111.749C111.402 176.694 111.071 176.55 110.828 176.302C110.586 176.053 110.45 175.72 110.45 175.372C110.45 175.025 110.586 174.691 110.828 174.443C111.071 174.194 111.402 174.051 111.749 174.043H119.308C119.562 174.042 119.81 174.114 120.024 174.251C120.237 174.388 120.406 174.583 120.511 174.814L122.958 180.06C122.991 180.126 123.025 180.202 123.052 180.273L158.177 255.61Z" fill="#FDD247"/>
<path d="M110.798 171.837L108.038 174.597V176.7H121.398L119.131 171.837H110.798Z" fill="#0A3C5F"/>
<path d="M121.398 176.701L120.417 174.597H108.038V176.701H121.398Z" fill="#0D134F"/>
<path d="M121.395 176.701H118.467L119.445 178.806H122.376L121.395 176.701Z" fill="#F8A510"/>
<path d="M105.854 254.303H99.101V255.61H105.854V254.303Z" fill="#0A3C5F"/>
<path d="M159.762 254.303H153.01V255.61H159.762V254.303Z" fill="#0A3C5F"/>
<path d="M157.569 254.303L156.075 251.098H153.144L154.637 254.303H157.569Z" fill="#62C1C5"/>
<path d="M104.082 254.303L104.913 251.098H102.157L101.325 254.303H104.082Z" fill="#62C1C5"/>
<path d="M81.8034 230.452C81.8034 233.13 72.951 235.301 62.0304 235.301C51.1098 235.301 42.2581 233.13 42.2581 230.452C42.2581 227.774 51.1106 225.602 62.0304 225.602C72.9503 225.602 81.8034 227.773 81.8034 230.452Z" fill="#BBE7F2"/>
<path d="M91.4731 164.697H85.1774V168.808H91.4731V164.697Z" fill="#0D134F"/>
<path d="M85.9683 177.312C85.9683 177.312 86.1565 175.262 86.2985 174.652C86.7148 173.8 87.3205 173.054 88.0692 172.472L88.8166 174.281C88.8166 174.281 87.4573 177.311 85.9683 177.312Z" fill="#FDB18D"/>
<path d="M88.3381 177.911C88.2355 177.911 88.1338 177.892 88.0389 177.853C87.9439 177.814 87.8575 177.757 87.7846 177.685C87.7118 177.613 87.6539 177.527 87.6142 177.432C87.5746 177.337 87.554 177.236 87.5536 177.133L87.5372 171.054C87.5365 170.847 87.618 170.648 87.7637 170.502C87.9095 170.355 88.1075 170.272 88.3142 170.272C88.5209 170.271 88.7194 170.353 88.8661 170.498C89.0127 170.644 89.0955 170.842 89.0962 171.049L89.1154 177.128C89.1159 177.23 89.0962 177.332 89.0573 177.427C89.0185 177.521 88.9613 177.608 88.8891 177.68C88.8169 177.753 88.7311 177.811 88.6365 177.85C88.542 177.89 88.4406 177.91 88.3381 177.911Z" fill="#F8A510"/>
<path d="M89.0955 171.049C89.0948 170.842 89.012 170.644 88.8654 170.498C88.7187 170.353 88.5202 170.271 88.3135 170.272C88.1067 170.272 87.9087 170.355 87.763 170.502C87.6173 170.648 87.5358 170.847 87.5365 171.054V171.946H89.0947L89.0955 171.049Z" fill="#BA7C0C"/>
<path d="M89.0976 171.979C87.0416 173.751 85.9675 177.312 85.9675 177.312L84.8265 178.319C85.1128 178.321 85.395 178.388 85.6523 178.513C85.9097 178.639 86.1359 178.82 86.3143 179.044C86.4927 179.268 86.619 179.529 86.6839 179.808C86.7487 180.087 86.7506 180.377 86.6893 180.656L87.8182 178.923L90.4069 176.871C91.0666 172.914 89.0976 171.979 89.0976 171.979Z" fill="#FDB18D"/>
<path d="M85.0561 177.911L85.673 177.141C85.673 177.141 86.8989 177.312 87.9993 179.271L87.0779 180.134L85.0561 177.911Z" fill="white"/>
<path d="M43.5354 180.949C45.965 188.221 49.1998 195.198 53.1794 201.751L55.3068 226.711L66.6595 226.385V224.857L58.2799 223.009L59.687 199.776L50.8524 182.403L43.5354 180.949Z" fill="#2466B4"/>
<path d="M66.6595 224.857L58.2799 223.009H54.9908L55.3068 226.713L66.6595 226.388V224.857Z" fill="#0D134F"/>
<path d="M66.6595 225.602L55.2397 225.929L55.3068 226.713L66.6595 226.388V225.602Z" fill="#FDD247"/>
<path d="M51.6048 189.496C53.8647 194.529 56.4788 199.396 59.4274 204.059L59.687 199.775L56.9406 194.375L51.6048 189.496Z" fill="#0D134F"/>
<path d="M74.5192 164.47C73.0049 164.545 71.5307 164.982 70.2203 165.745L68.1693 163.441L70.9042 160.626L74.3017 161.624L74.5192 164.47Z" fill="#F09474"/>
<path d="M70.2018 158.615C70.2018 158.615 71.4512 149.971 78.5457 152.576C78.5457 152.576 85.3435 154.461 80.2894 164.806L79.0414 164.19C79.0414 164.19 77.359 166.912 75.9227 166.127L70.5876 160.96L70.2018 158.615Z" fill="#FDB18D"/>
<path d="M72.5032 156.943L76.1674 153.955L81.73 155.667C82.3404 157.236 82.4374 159.556 81.1138 162.947L72.5032 156.943Z" fill="#F09474"/>
<path d="M70.2018 158.615C70.2018 158.615 71.4512 149.971 78.5457 152.576C78.5457 152.576 83.1812 153.859 81.9496 160.135C81.9439 160.139 81.173 160.634 78.7746 159.636C78.2531 159.8 77.7725 160.073 77.3647 160.438C76.957 160.802 76.6314 161.249 76.4098 161.748L75.554 161.231C75.554 161.231 76.6423 158.593 75.5383 157.737L74.112 158.043C74.112 158.043 73.1721 160.272 71.5232 160.345L70.4414 160.06L70.2018 158.615Z" fill="#0A3C5F"/>
<path d="M75.758 157.979C76.4747 158.998 75.5562 161.236 75.5562 161.236L76.412 161.753C76.6336 161.253 76.9591 160.806 77.3669 160.442C77.7746 160.078 78.2553 159.804 78.7768 159.64C81.1752 160.639 81.9461 160.14 81.9518 160.14C82.2014 158.998 82.2205 157.817 82.0081 156.668C81.1844 157.005 80.3928 157.39 79.5477 157.646C78.3152 157.986 77.031 158.099 75.758 157.979Z" fill="#0D134F"/>
<path d="M74.112 158.049L74.9571 157.867C74.219 157.754 73.516 157.476 72.9004 157.054C72.2089 156.472 71.7551 155.657 71.6253 154.763C70.9183 155.949 70.4349 157.254 70.1989 158.614L70.4386 160.066L71.5204 160.351C73.1721 160.278 74.112 158.049 74.112 158.049Z" fill="#0D134F"/>
<path d="M73.9837 158.32C73.5843 159.295 73.7555 160.289 74.3673 160.539C74.9792 160.789 75.7979 160.2 76.1966 159.225C76.5952 158.249 76.4241 157.253 75.8129 157.003C75.2017 156.753 74.383 157.345 73.9837 158.32Z" fill="#FDB18D"/>
<path d="M67.1316 162.649L69.1905 161.533L73.2769 165.745L72.302 166.501L67.1316 162.649Z" fill="white"/>
<path d="M47.9213 182.231C47.9213 182.231 50.5636 190.29 62.3271 204.034L63.1073 232.418H75.7223V231.037L66.661 228.704L70.3879 202.054L60.6084 182.976L47.9213 182.231Z" fill="#2466B4"/>
<path d="M43.5354 180.949C43.5354 180.949 47.9227 167.317 67.1331 162.649C67.1331 162.649 71.9618 164.267 74.5207 167.906C74.5207 167.906 71.6153 172.777 63.1101 179.372L61.4036 184.517C61.4036 184.517 47.0227 188.016 43.5354 180.949Z" fill="#5600B5"/>
<path d="M61.3993 184.517L63.1059 179.372C65.9025 177.232 68.5256 174.874 70.9506 172.321L69.9672 171.251L61.8215 177.755C60.7122 177.326 59.7442 176.597 59.0259 175.649C59.3401 177.097 60.1159 178.403 61.2367 179.372L59.6841 183.311C59.6841 183.311 48.4298 185.318 43.5311 180.949C47.0227 188.016 61.3993 184.517 61.3993 184.517Z" fill="#410088"/>
<path d="M74.5192 167.906C74.5192 167.906 79.9649 175.882 82.3797 180.061L85.1189 177.46C85.1189 177.46 86.7442 177.834 87.4873 180.061L82.6578 184.752C82.6578 184.752 80.8492 186.481 76.1802 180.949L69.9358 173.376C69.9358 173.376 69.0279 167.08 74.5192 167.906Z" fill="#5600B5"/>
<path d="M75.7209 231.036L66.6595 228.702H63.0046L63.1073 232.417H75.7216L75.7209 231.036Z" fill="#0D134F"/>
<path d="M63.1059 232.417H75.7202V231.036H63.0681L63.1059 232.417Z" fill="#FDD247"/>
<path d="M91.5886 168.112H85.0618V171.248H91.5886V168.112Z" fill="#F8A510"/>
<path d="M91.5894 169.445L85.0625 169.888V168.999H91.5894V169.445Z" fill="#BA7C0C"/>
<path d="M85.1774 165.974C85.2749 166.01 85.3757 166.037 85.4783 166.054C85.707 166.061 85.9252 166.151 86.0916 166.308C86.24 166.487 86.215 166.724 86.3291 166.919C86.7214 167.588 86.966 166.776 87.1435 166.475C87.2735 166.298 87.459 166.169 87.6705 166.109C87.882 166.05 88.1074 166.062 88.311 166.145C88.6847 166.355 88.3559 166.994 88.7039 167.241C89.1903 167.588 89.3265 166.557 89.3793 166.278C89.4463 165.93 89.6646 165.379 90.1445 165.494C90.6009 165.6 90.4954 166.286 90.6152 166.624C90.6744 166.79 90.7878 167.074 90.996 166.906C91.1315 166.797 91.0795 166.413 91.1001 166.253C91.1054 166.043 91.1825 165.842 91.3184 165.682C91.3631 165.636 91.4154 165.598 91.4731 165.57V164.697H85.1774V165.974Z" fill="#E9F9F9"/>
<path d="M207.319 265.151C207.319 267.829 198.467 270 187.545 270C176.624 270 167.773 267.829 167.773 265.151C167.773 262.472 176.626 260.301 187.545 260.301C198.465 260.301 207.319 262.471 207.319 265.151Z" fill="#BBE7F2"/>
<path d="M192.833 216.699C192.833 216.699 194.797 222.97 190.613 240.329L191.174 260.349H188.743C188.743 260.349 184.213 250.436 184.743 241.217C184.743 241.217 181.295 226.811 182.936 218.124C182.936 218.124 187.433 213.9 192.833 216.699Z" fill="#2466B4"/>
<path d="M182.494 223.406C182.488 226.879 183.458 230.284 185.294 233.232C186.135 229.342 185.508 224.15 186.072 216.743L185.825 216.376C184.77 216.79 183.793 217.381 182.936 218.124C182.882 218.409 182.838 218.694 182.794 218.979C182.592 220.446 182.492 221.925 182.494 223.406Z" fill="#0D134F"/>
<path d="M175.786 211.857C175.786 211.857 171.243 221.18 177.005 238.688C177.005 238.688 174.457 242.567 177.005 261.735H179.221L182.324 239.02C182.324 239.02 185.442 225.408 186.154 216.037L175.786 211.857Z" fill="#2466B4"/>
<path d="M201.977 192.743C201.977 192.743 204.164 194.721 199.677 207.271L198.932 220.655L199.68 223.242L198.932 226.209C198.604 225.861 198.385 225.425 198.302 224.954C198.22 224.484 198.278 223.999 198.468 223.561C198.468 223.561 196.182 224.839 195.498 223.317L196.487 220.2L195.153 208.031L197.704 195.408C197.704 195.408 198.343 192.74 201.977 192.743Z" fill="#F09474"/>
<path d="M199.104 234.438L197.82 234.103C199.047 229.387 198.747 225.917 196.934 223.789C194.647 221.111 190.658 221.467 190.617 221.47C182.537 221.755 181.944 233.044 181.939 233.158L180.611 233.099C180.616 232.974 181.276 220.466 190.53 220.144C190.68 220.125 195.214 219.727 197.947 222.925C200.057 225.403 200.447 229.279 199.104 234.438Z" fill="#FDD247"/>
<path d="M190.613 220.351L189.422 220.707L187.796 220.351C187.935 220.878 187.935 221.433 187.796 221.96L187.805 221.964C187.792 222.083 187.801 222.204 187.832 222.32C187.996 222.942 188.545 222.953 189.085 222.952C189.643 222.932 190.201 223.002 190.736 223.16C190.977 223.25 191.237 223.277 191.491 223.238C191.745 223.198 191.985 223.094 192.187 222.935C192.353 222.787 192.496 222.615 192.611 222.425L193.432 221.264L190.613 220.351Z" fill="#F09474"/>
<path d="M185.683 188.653C185.683 188.653 192.391 180.788 201.977 192.743C201.977 192.743 201.497 195.937 198.571 200.652C198.571 200.652 196.957 204.075 193.83 204.226C193.83 204.226 191.845 212.668 192.831 216.699C192.831 216.699 182.242 222.987 174.455 211.857C174.455 211.857 178.61 205.56 180.13 200.369C180.131 200.369 181.425 193.082 185.683 188.653Z" fill="#FDB18D"/>
<path d="M198.219 223.787C198.005 223.664 197.797 223.859 197.622 223.935C197.831 223.407 197.511 222.412 196.802 222.595L196.723 222.621C196.763 222.543 196.779 222.456 196.769 222.369C196.759 222.282 196.724 222.2 196.668 222.132C196.612 222.065 196.538 222.016 196.454 221.99C196.371 221.965 196.281 221.964 196.197 221.989C195.882 222.082 195.698 222.394 195.531 222.647C195.411 222.777 195.32 222.932 195.265 223.1C195.211 223.269 195.193 223.447 195.215 223.623C195.258 223.793 195.357 223.943 195.496 224.049C195.635 224.155 195.806 224.211 195.981 224.207C195.965 224.345 195.981 224.485 196.028 224.616C196.076 224.747 196.154 224.865 196.255 224.96C196.439 225.114 196.667 225.197 196.851 224.996C196.743 225.186 196.697 225.406 196.72 225.623C196.743 225.841 196.835 226.046 196.98 226.209C197.378 226.557 197.613 226.222 197.85 225.907C198.088 225.63 198.271 225.31 198.39 224.965C198.469 224.67 198.566 223.987 198.219 223.787Z" fill="#F09474"/>
<path d="M199.676 223.238L198.932 226.212C198.603 225.865 198.383 225.428 198.3 224.956C198.217 224.485 198.275 223.999 198.467 223.56C198.467 223.56 198.554 222.134 198.301 222.231C198.408 221.84 198.367 222.982 198.699 222.775C198.923 222.616 199.172 222.497 199.437 222.424H199.444L199.676 223.238Z" fill="#F09474"/>
<path d="M198.572 200.652C199.181 199.672 199.739 198.661 200.242 197.622C200.254 197.532 200.26 197.441 200.274 197.35C200.417 196.127 200.477 194.897 200.453 193.666C200.46 192.83 200.565 192.01 200.635 191.185C200.374 190.9 200.116 190.631 199.861 190.377C199.861 190.591 199.867 190.8 199.867 191.011C199.867 192.875 200.061 194.992 199.325 196.73C198.799 197.973 198.042 199.475 196.535 199.566C196.137 199.67 195.718 199.667 195.322 199.559C194.925 199.45 194.563 199.24 194.273 198.949C193.983 198.657 193.774 198.295 193.667 197.898C193.56 197.501 193.558 197.082 193.663 196.685C193.955 195.012 194.159 193.325 194.273 191.631C194.345 190.14 194.646 187.741 193.56 186.608C193.453 186.501 193.34 186.4 193.22 186.307C192.39 186.123 191.536 186.073 190.69 186.158L190.814 186.191C191.15 186.257 191.47 186.392 191.752 186.587C192.034 186.782 192.274 187.033 192.455 187.324C192.636 187.615 192.756 187.94 192.806 188.28C192.857 188.619 192.837 188.965 192.748 189.296C192.235 190.833 191.475 192.276 190.498 193.567C189.442 195.024 188.073 196.552 186.131 196.063C184.373 195.621 183.965 193.853 183.746 192.304C183.698 191.947 183.679 191.586 183.689 191.225C181.986 194.046 180.782 197.14 180.13 200.37C178.61 205.561 174.455 211.858 174.455 211.858C182.242 222.987 192.831 216.699 192.831 216.699C191.844 212.669 193.83 204.227 193.83 204.227C196.957 204.073 198.572 200.652 198.572 200.652Z" fill="#5600B5"/>
<path d="M192.833 216.699C191.847 212.676 193.82 204.264 193.831 204.228C193.194 203.746 192.428 203.428 191.777 202.93C191.325 202.633 190.897 202.299 190.5 201.931C190.2 201.549 189.838 201.22 189.43 200.956C189.236 201.714 189.454 202.566 189.349 203.362C189.16 204.073 188.784 204.721 188.261 205.238C187.31 206.459 187.152 207.82 186.64 209.292C185.953 211.269 183.996 214.432 181.556 214.327C179.309 214.229 176.858 212.24 175.323 210.48C174.805 211.331 174.461 211.855 174.461 211.855C182.244 222.987 192.833 216.699 192.833 216.699Z" fill="#410088"/>
<path d="M204.709 188.968C203.71 189.736 204.603 192.381 204.88 193.297C205.282 194.629 205.965 196.394 205.593 197.876C205.129 199.73 202.93 199.72 201.595 198.83C200.227 197.92 199.883 196.548 199.812 195.036C199.767 194.093 199.862 193.141 199.812 192.199C199.76 191.215 199.215 190.587 199.099 189.674C198.827 187.473 203.041 186.957 204.311 188.184" fill="#0D134F"/>
<path d="M187.053 190.156C187.053 190.156 189.492 185.044 192.837 188.359C192.837 188.359 194.549 190.668 190.931 196.089C190.931 196.089 186.215 202.778 185.607 205.518C185.607 205.518 188.878 214.344 190.322 216.852C190.322 216.852 192.737 219.591 193.431 221.264C193.431 221.264 186.054 223.617 188.109 218.211L180.359 205.572C180.359 205.572 182.031 199.281 187.053 190.156Z" fill="#FDB18D"/>
<path d="M178.721 233.576C178.721 233.576 178.753 239.661 186.154 244.995L188.311 238.933L185.039 234.783L178.721 233.576Z" fill="#F8A510"/>
<path d="M199.882 235.991L191.412 241.545L191.326 241.598L189.191 242.995L188.102 243.712L186.153 244.988C183.943 237.117 178.72 233.574 178.72 233.574L192.449 224.572C192.449 224.572 197.674 228.118 199.882 235.991Z" fill="#FDD247"/>
<path d="M177.005 261.735C177.005 261.735 176.762 263.764 176.085 264.584C176.085 264.584 174.587 266.545 177.511 266.545H180.685C180.685 266.545 182.682 265.552 180.436 264.14C180.062 263.86 179.758 263.497 179.548 263.08C179.338 262.662 179.227 262.202 179.224 261.735H177.005Z" fill="#FDB18D"/>
<path d="M191.174 260.349L191.406 262.287C191.406 262.287 198.912 263.823 199.251 264.88H189.305L189.583 262.614L188.745 260.349H191.174Z" fill="#FDB18D"/>
<path d="M176.229 254.711C176.407 256.79 176.657 259.115 177.005 261.735H179.221L180.181 254.711H176.229Z" fill="#FDB18D"/>
<path d="M188.743 260.349H191.174L191.016 254.715H186.685C187.258 256.633 187.945 258.514 188.743 260.349Z" fill="#FDB18D"/>
<path d="M180.599 264.254C180.533 264.383 180.435 264.493 180.314 264.572C179.555 265.064 178.325 264.82 177.526 264.6C177.306 264.544 177.102 264.438 176.929 264.292C176.756 264.145 176.619 263.961 176.527 263.753C176.424 264.052 176.274 264.332 176.084 264.584C176.084 264.584 174.586 266.545 177.51 266.545H180.683C180.683 266.545 182.563 265.604 180.599 264.254Z" fill="#62C1C5"/>
<path d="M194.776 263.075C194.754 263.254 194.776 263.401 194.591 263.542C194.386 263.663 194.144 263.706 193.91 263.662C193.383 263.641 192.888 263.548 192.352 263.548C191.384 263.548 190.427 263.548 189.467 263.548L189.303 264.88H199.249C199.069 264.313 196.819 263.607 194.776 263.075Z" fill="#62C1C5"/>
<path d="M212.375 244.507L206.145 242.778L191.882 243.516L188.102 243.716L189.192 242.998L191.327 241.601L191.413 241.549L194.251 241.316L205.075 240.425L206.471 238.045L212.375 244.507Z" fill="#FDD247"/>
<path d="M194.251 241.316L191.884 243.516L188.104 243.716L189.194 242.998L191.329 241.601L191.415 241.549L194.251 241.316Z" fill="#F8A510"/>
<path d="M198.571 183.909L201.219 188.528L202.708 191.544C202.708 191.544 200.978 189.007 197.319 191.908L193.796 186.452C194.277 186.604 194.783 186.659 195.284 186.613C195.786 186.567 196.274 186.422 196.718 186.185C197.163 185.948 197.556 185.624 197.874 185.234C198.193 184.843 198.43 184.393 198.571 183.909Z" fill="#FDB18D"/>
<path d="M198.572 183.909C198.572 183.909 201.026 175.527 207.684 179.105C207.684 179.105 212.803 180.835 208.397 188.835C208.064 189.44 208.141 190.787 207.684 191.457L206.535 190.673C206.535 190.673 204.487 193.131 203.175 192.152L198.621 186.285L198.572 183.909Z" fill="#FDB18D"/>
<path d="M210.181 183.341C209.327 184.155 208.265 184.717 207.112 184.966C205.959 185.214 204.759 185.141 203.646 184.752C202.82 185.839 201.731 186.697 200.481 187.245C200.197 187.367 199.903 187.467 199.603 187.543C198.047 187.963 196.086 187.856 193.799 186.452C194.279 186.605 194.786 186.66 195.288 186.614C195.79 186.568 196.277 186.422 196.722 186.185C197.167 185.948 197.56 185.624 197.877 185.232C198.195 184.841 198.431 184.39 198.572 183.906C198.572 183.906 201.026 175.53 207.688 179.107C207.688 179.107 210.26 179.978 210.181 183.341Z" fill="#0A3C5F"/>
<path d="M209.101 180.115C209.089 180.477 209.041 180.836 208.959 181.188C208.459 183.192 206.813 183.863 204.947 183.861C203.281 183.861 201.349 183.861 200.601 182.078C200.407 181.607 200.298 181.105 200.278 180.595C199.531 181.598 198.953 182.716 198.567 183.906C198.426 184.39 198.189 184.84 197.872 185.232C197.554 185.623 197.161 185.947 196.716 186.184C196.272 186.421 195.784 186.567 195.282 186.613C194.78 186.659 194.274 186.604 193.793 186.452C196.08 187.856 198.042 187.963 199.598 187.543C199.898 187.466 200.191 187.366 200.475 187.244C201.725 186.696 202.814 185.838 203.64 184.751C204.754 185.14 205.953 185.214 207.106 184.965C208.259 184.716 209.321 184.154 210.175 183.341C210.255 182.166 209.869 181.008 209.101 180.115Z" fill="#0D134F"/>
<path d="M202.355 184.15C201.823 185.06 201.852 186.069 202.427 186.402C203.002 186.734 203.89 186.268 204.424 185.358C204.957 184.447 204.928 183.439 204.357 183.105C203.787 182.77 202.89 183.239 202.355 184.15Z" fill="#FDB18D"/>
<path d="M231.63 237.176C233.782 229.906 226.514 225.2 223.685 219.76C223.733 222.55 222.993 225.125 223.74 227.895C224.518 230.783 225.686 232.773 225.38 235.828C225.113 238.504 224.517 241.826 225.516 244.475C226.351 246.383 227.407 248.186 228.663 249.846C229.261 248.342 230.355 246.999 230.653 245.151C230.855 243.892 230.397 242.262 230.479 240.909C230.572 239.393 231.216 238.572 231.63 237.176Z" fill="#3D895B"/>
<path d="M252.127 245.071C250.758 244.044 249.092 244.089 247.43 244.001C245.334 243.894 244.129 244.602 242.727 246.113C242.293 246.741 241.794 247.322 241.237 247.844C240.554 248.311 239.497 248.327 238.806 248.936C237.736 249.876 237.615 251.361 237.319 252.652C238.508 252.521 240.045 252.626 240.599 252.538C242.393 252.257 243.371 250.942 244.415 249.532C245.057 248.666 245.27 248.289 246.362 248.165C247.218 248.091 248.079 248.125 248.925 248.266C250.592 248.545 252.3 248.437 253.917 247.949C254.645 247.835 255.388 248.012 255.986 248.443C255.325 247.05 253.248 245.911 252.127 245.071Z" fill="#73C176"/>
<path d="M246.045 235.035C245.187 236.138 244.493 237.36 243.985 238.662C243.568 239.985 242.794 241.168 241.748 242.08C240.873 242.716 239.631 242.804 238.675 243.262C236.124 244.483 235.095 247.973 235.832 250.743C237.183 249.845 238.157 248.231 239.507 247.286C241.131 246.145 242.032 244.271 243.582 243.119C245.275 241.861 247.016 241.546 248.154 239.519C248.987 237.945 249.365 236.171 249.246 234.394C249.232 234.144 249.129 233.578 249.072 233.021C248.95 233.08 248.831 233.146 248.715 233.217C247.679 233.894 246.839 233.99 246.045 235.035Z" fill="#3D895B"/>
<path d="M221.357 241.797C220.597 239.726 219.22 237.937 217.412 236.673C215.319 235.197 213.217 235.18 210.701 235.18C211.023 236.781 211.219 238.466 212.199 239.557C213.644 241.174 215.632 241.198 216.784 243.448C217.954 245.733 218.131 248.184 220.469 249.81C222.482 251.208 225.072 251.094 227.056 252.634C226.486 250.58 226.446 248.389 224.917 246.539C223.44 244.764 222.248 244.102 221.357 241.797Z" fill="#73C176"/>
<path d="M222.269 247.672C223.329 248.726 224.537 249.588 225.575 250.501C226.552 251.316 227.374 252.301 228 253.408L227.981 253.377C228.282 253.966 228.549 254.571 228.781 255.19C228.995 255.72 229.158 256.182 229.294 256.559C229.477 256.94 229.598 257.348 229.65 257.767C229.602 257.794 229.365 257.407 229.001 256.687L228.364 255.374C228.122 254.858 227.839 254.279 227.517 253.711L227.509 253.698L227.498 253.678C226.858 252.67 226.054 251.775 225.12 251.03C224.094 250.166 222.871 249.318 221.738 248.195C221.428 247.868 221.136 247.525 220.863 247.167C220.631 246.782 220.371 246.422 220.178 246.031C219.853 245.28 219.609 244.496 219.448 243.694C219.313 243.018 219.075 242.367 218.742 241.763C218.442 241.241 218.077 240.758 217.656 240.326C217.025 239.7 216.317 239.156 215.55 238.707C215.008 238.368 214.703 238.177 214.728 238.128C214.753 238.078 215.093 238.187 215.687 238.452C216.541 238.821 217.33 239.327 218.022 239.95C218.504 240.39 218.923 240.894 219.269 241.447C219.659 242.091 219.943 242.792 220.111 243.525C220.28 244.278 220.522 245.012 220.835 245.717C221.011 246.065 221.253 246.387 221.46 246.733C221.687 247.065 222 247.352 222.269 247.672Z" fill="#F8A510"/>
<path d="M229.107 241.392C227.939 246.051 228.874 250.37 229.411 253.44C230.009 256.521 230.318 258.453 230.213 258.473C230.014 258.058 229.873 257.618 229.794 257.165C229.58 256.309 229.246 255.085 228.896 253.547C228.459 251.745 228.139 249.916 227.938 248.073C227.901 247.548 227.863 247.009 227.823 246.458C227.834 245.905 227.846 245.339 227.858 244.761C227.887 244.174 227.955 243.589 228.062 243.011C228.139 242.411 228.26 241.84 228.375 241.258C228.59 240.131 228.724 238.991 228.776 237.845C228.808 236.787 228.72 235.728 228.513 234.689C228.069 232.928 227.439 231.219 226.634 229.591C226.098 228.463 225.639 227.299 225.26 226.109C225.104 225.673 225.018 225.216 225.005 224.754C225.232 225.151 225.41 225.574 225.535 226.015C225.862 226.825 226.39 227.964 227.109 229.366C228.004 231.005 228.699 232.744 229.182 234.547C229.421 235.636 229.529 236.75 229.504 237.865C229.462 239.049 229.329 240.229 229.107 241.392Z" fill="#F8A510"/>
<path d="M230.48 240.909C230.499 240.592 230.547 240.278 230.622 239.97C230.489 239.827 230.358 239.684 230.209 239.536C229.413 238.739 229.321 238.083 228.932 237.143C227.912 239.045 226.935 241.512 227.621 243.548C228.002 244.689 228.842 245.599 229.42 246.629C229.581 246.919 229.712 247.225 229.813 247.541C230.216 246.793 230.499 245.987 230.653 245.151C230.856 243.892 230.398 242.258 230.48 240.909Z" fill="#0D134F"/>
<path d="M237.1 248.106C236.339 249.632 236.141 251.345 235.659 252.843C235.437 253.56 235.159 254.259 234.826 254.932C234.505 255.541 234.194 256.099 233.943 256.615C232.874 258.666 233.046 260.171 232.886 260.161C232.775 259.83 232.741 259.479 232.786 259.133C232.833 258.186 233.064 257.257 233.465 256.397C233.694 255.848 233.98 255.273 234.274 254.655C234.565 254.006 234.808 253.336 235 252.65C235.434 251.208 235.601 249.47 236.432 247.779C236.639 247.368 236.879 246.974 237.149 246.601C237.417 246.246 237.705 245.907 238.013 245.586C238.626 244.983 239.253 244.454 239.86 243.963C241.086 243.007 242.199 242.193 243.082 241.449C244.85 239.964 245.655 238.754 245.768 238.833C245.81 238.861 245.633 239.177 245.273 239.734C244.738 240.501 244.121 241.207 243.433 241.84C242.578 242.653 241.475 243.525 240.295 244.495C238.988 245.46 237.899 246.691 237.1 248.106Z" fill="#F8A510"/>
<path d="M240.377 251.369C239.621 251.625 238.912 252 238.275 252.481C237.689 252.938 237.154 253.456 236.677 254.027C235.888 255.035 235.196 256.115 234.609 257.253C233.719 259.24 233.749 260.676 233.592 260.653C233.54 260.653 233.52 260.305 233.54 259.671C233.597 258.769 233.796 257.882 234.127 257.041C234.668 255.821 235.345 254.666 236.144 253.597C236.642 252.969 237.209 252.401 237.835 251.902C238.517 251.374 239.281 250.962 240.096 250.682C240.84 250.43 241.533 250.046 242.141 249.547C242.672 249.02 243.152 248.445 243.576 247.828C244.419 246.616 245.652 245.617 246.857 245.5C247.76 245.376 248.679 245.441 249.557 245.691C250.167 245.845 250.492 245.964 250.484 246.013C250.475 246.061 250.127 246.042 249.507 245.976C248.661 245.846 247.801 245.86 246.96 246.016C246.364 246.18 245.807 246.46 245.321 246.841C244.834 247.221 244.428 247.695 244.126 248.234C243.692 248.901 243.192 249.522 242.633 250.088C241.968 250.652 241.202 251.086 240.377 251.369Z" fill="#F8A510"/>
<path d="M235.496 232.474C236.307 230.306 236.84 228.201 236.037 225.931C235.697 224.973 235.196 224.082 234.885 223.119C234.625 223.431 234.394 223.765 234.192 224.118C233.945 224.893 233.767 225.688 233.66 226.495C233.378 227.905 232.9 229.27 232.243 230.549C230.888 232.965 228.638 234.703 228.128 237.601C227.628 240.414 228.679 243.468 230.271 245.691C230.949 246.48 231.449 247.407 231.735 248.407C231.83 248.906 231.825 249.396 231.878 249.863C232.542 248.7 233.308 247.597 234.166 246.569C235.844 244.253 236.02 242.159 235.388 239.525C234.722 237.216 234.76 234.761 235.496 232.474Z" fill="#73C176"/>
<path d="M232.262 242.816C232.571 244.938 232.571 247.093 232.262 249.215C232.043 251.157 231.8 252.882 231.767 254.336C231.645 257.251 232.266 258.992 232.113 259.035C231.903 258.656 231.753 258.248 231.668 257.823C231.517 257.339 231.419 256.84 231.377 256.334C231.342 256.041 231.286 255.725 231.263 255.39C231.255 255.054 231.25 254.701 231.241 254.328C231.262 252.596 231.375 250.866 231.58 249.146C231.843 247.08 231.825 244.987 231.526 242.926C231.164 240.759 230.756 238.504 231.36 236.507C231.533 236.041 231.728 235.584 231.946 235.137L232.62 233.976C233.053 233.23 233.451 232.539 233.748 231.881C234.25 230.859 234.571 229.759 234.698 228.628C234.679 228.202 234.709 227.775 234.788 227.357C234.932 227.769 234.999 228.204 234.987 228.64C234.97 229.831 234.712 231.006 234.229 232.095C233.914 232.843 233.557 233.572 233.16 234.279C232.953 234.66 232.739 235.051 232.518 235.454C232.337 235.86 232.167 236.27 232.019 236.703C231.509 238.503 231.887 240.592 232.262 242.816Z" fill="#F8A510"/>
<path d="M251.754 265.548H212.29C213.606 263.266 215.065 261.175 217.503 259.927C219.036 259.261 220.639 258.768 222.281 258.457C224.064 257.99 225.245 257.031 226.875 256.327C230.772 254.654 233.769 257.566 237.489 257.795C239.179 257.898 240.723 256.845 242.489 256.997C244.423 257.281 246.193 258.245 247.481 259.715C249.454 261.778 250.235 263.79 251.754 265.548Z" fill="#2CDAC9"/>
</svg>
