<svg width="21" height="22" viewBox="0 0 21 22" fill="none" xmlns="http://www.w3.org/2000/svg">
<path d="M19.5 9.48682C19.5 6.68655 19.5 5.28642 18.955 4.21686C18.4757 3.27605 17.7108 2.51115 16.77 2.03178C15.7004 1.48682 14.3003 1.48682 11.5 1.48682H9.5C6.69974 1.48682 5.29961 1.48682 4.23005 2.03178C3.28924 2.51115 2.52433 3.27605 2.04497 4.21686C1.5 5.28642 1.5 6.68655 1.5 9.48682V13.7152C1.5 15.7982 3.18863 17.4868 5.27166 17.4868H5.87341C6.65251 17.4868 7.18525 18.2737 6.8959 18.9971C6.48743 20.0182 7.6635 20.9415 8.55848 20.3022L11.1692 18.4374C11.1958 18.4184 11.2092 18.4088 11.2222 18.3996C12.0562 17.8119 13.0501 17.4935 14.0703 17.4869C14.0863 17.4868 14.1077 17.4868 14.1504 17.4868C14.4623 17.4868 14.6183 17.4868 14.7364 17.4812C17.312 17.3593 19.3725 15.2988 19.4944 12.7233C19.5 12.6051 19.5 12.4653 19.5 12.1857V9.48682Z" stroke="#4F4F4F" stroke-width="1.5"/>
</svg>
