<svg width="13" height="11" viewBox="0 0 13 11" fill="none" xmlns="http://www.w3.org/2000/svg">
<path fill-rule="evenodd" clip-rule="evenodd" d="M6.274 3.53956C5.43948 3.53956 4.7612 4.21846 4.7612 5.05298C4.7612 5.88687 5.43948 6.56515 6.274 6.56515C7.10852 6.56515 7.78743 5.88687 7.78743 5.05298C7.78743 4.21846 7.10852 3.53956 6.274 3.53956ZM6.27381 7.50633C4.92038 7.50633 3.81982 6.40577 3.81982 5.05297C3.81982 3.69955 4.92038 2.59836 6.27381 2.59836C7.62723 2.59836 8.72842 3.69955 8.72842 5.05297C8.72842 6.40577 7.62723 7.50633 6.27381 7.50633Z" fill="#4F4F4F"/>
<mask id="mask0_766_1433" style="mask-type:luminance" maskUnits="userSpaceOnUse" x="0" y="0" width="13" height="11">
<path fill-rule="evenodd" clip-rule="evenodd" d="M0 0H12.549V10.1052H0V0Z" fill="white"/>
</mask>
<g mask="url(#mask0_766_1433)">
<path fill-rule="evenodd" clip-rule="evenodd" d="M0.985352 5.05248C2.15242 7.6307 4.11825 9.16357 6.27482 9.1642C8.43139 9.16357 10.3972 7.6307 11.5643 5.05248C10.3972 2.47488 8.43139 0.942003 6.27482 0.941376C4.11887 0.942003 2.15242 2.47488 0.985352 5.05248ZM6.27567 10.1053H6.27316H6.27253C3.67737 10.1034 1.34699 8.28445 0.038118 5.23815C-0.012706 5.11956 -0.012706 4.98528 0.038118 4.86669C1.34699 1.82102 3.678 0.00201727 6.27253 0.0001349C6.27379 -0.000492558 6.27379 -0.000492558 6.27442 0.0001349C6.27567 -0.000492558 6.27567 -0.000492558 6.2763 0.0001349C8.87146 0.00201727 11.2018 1.82102 12.5107 4.86669C12.5622 4.98528 12.5622 5.11956 12.5107 5.23815C11.2025 8.28445 8.87146 10.1034 6.2763 10.1053H6.27567Z" fill="#4F4F4F"/>
</g>
</svg>
