<svg width="18" height="18" viewBox="0 0 18 18" fill="none" xmlns="http://www.w3.org/2000/svg">
<path d="M2.9163 16.4106L3.3083 15.7712L2.9163 16.4106ZM1.59632 15.09L2.23588 14.6982V14.6982L1.59632 15.09ZM16.4108 15.09L15.7713 14.6982V14.6982L16.4108 15.09ZM15.0908 16.4106L14.6988 15.7712L15.0908 16.4106ZM15.0908 3.98944L14.6988 4.62884L15.0908 3.98944ZM16.4108 5.31001L15.7713 5.70175L16.4108 5.31001ZM2.9163 3.98944L3.3083 4.62884L2.9163 3.98944ZM1.59632 5.31001L2.23588 5.70175L1.59632 5.31001ZM14.1827 1.43716L14.7241 0.918107V0.918107L14.1827 1.43716ZM2.48186 1.71263L2.93484 2.31039V2.31039L2.48186 1.71263ZM1.6904 2.53813L2.30581 2.96682V2.96682L1.6904 2.53813ZM14.6011 3.50426H15.3511L15.3511 3.50055L14.6011 3.50426ZM14.0922 10.4409C14.5064 10.4409 14.8422 10.1051 14.8422 9.69092C14.8422 9.27671 14.5064 8.94092 14.0922 8.94092V10.4409ZM11.9114 8.94092C11.4972 8.94092 11.1614 9.27671 11.1614 9.69092C11.1614 10.1051 11.4972 10.4409 11.9114 10.4409V8.94092ZM7.80411 4.15H10.203V2.65H7.80411V4.15ZM10.203 16.25H7.80411V17.75H10.203V16.25ZM7.80411 16.25C6.48079 16.25 5.541 16.2492 4.81018 16.1797C4.09054 16.1112 3.65135 15.9815 3.3083 15.7712L2.5243 17.05C3.14269 17.4291 3.83863 17.594 4.66814 17.673C5.48647 17.7508 6.50985 17.75 7.80411 17.75V16.25ZM0.257148 10.2C0.257148 11.4949 0.256358 12.5186 0.33416 13.3373C0.413021 14.1671 0.57788 14.8632 0.956766 15.4817L2.23588 14.6982C2.02559 14.3549 1.89586 13.9154 1.82743 13.1954C1.75794 12.4642 1.75715 11.5239 1.75715 10.2H0.257148ZM3.3083 15.7712C2.87125 15.5032 2.50375 15.1356 2.23588 14.6982L0.956766 15.4817C1.34825 16.1209 1.88539 16.6583 2.5243 17.05L3.3083 15.7712ZM10.203 17.75C11.4973 17.75 12.5207 17.7508 13.339 17.673C14.1685 17.594 14.8645 17.4291 15.4828 17.05L14.6988 15.7712C14.3558 15.9815 13.9166 16.1112 13.197 16.1797C12.4662 16.2492 11.5264 16.25 10.203 16.25V17.75ZM15.7713 14.6982C15.5034 15.1356 15.1359 15.5032 14.6988 15.7712L15.4828 17.05C16.1218 16.6583 16.6589 16.1209 17.0504 15.4817L15.7713 14.6982ZM14.6988 4.62884C15.1359 4.89679 15.5034 5.26444 15.7713 5.70175L17.0504 4.91826C16.6589 4.27913 16.1218 3.74174 15.4828 3.35004L14.6988 4.62884ZM7.80411 2.65C6.50985 2.65 5.48647 2.64921 4.66814 2.72705C3.83863 2.80596 3.14269 2.97091 2.5243 3.35004L3.3083 4.62884C3.65135 4.41852 4.09054 4.28876 4.81018 4.22031C5.541 4.15079 6.48079 4.15 7.80411 4.15V2.65ZM1.75715 10.2C1.75715 8.87611 1.75794 7.93584 1.82743 7.20464C1.89586 6.48458 2.02559 6.04507 2.23588 5.70175L0.956766 4.91826C0.57788 5.53682 0.413021 6.23293 0.33416 7.06272C0.256358 7.88136 0.257148 8.90514 0.257148 10.2H1.75715ZM2.5243 3.35004C1.88539 3.74174 1.34825 4.27913 0.956766 4.91826L2.23588 5.70175C2.50375 5.26444 2.87125 4.89679 3.3083 4.62884L2.5243 3.35004ZM7.44673 1.75H11.7398V0.25H7.44673V1.75ZM11.7398 1.75C12.4365 1.75 12.8803 1.75173 13.2058 1.79738C13.5064 1.83953 13.5929 1.90568 13.6413 1.95621L14.7241 0.918107C14.3534 0.531481 13.8929 0.379049 13.4141 0.311912C12.9603 0.24827 12.3923 0.25 11.7398 0.25V1.75ZM7.44673 0.25C6.12266 0.25 5.06679 0.248881 4.22662 0.343822C3.37048 0.440569 2.6494 0.64466 2.02889 1.11487L2.93484 2.31039C3.25474 2.06797 3.67462 1.91575 4.39505 1.83434C5.13147 1.75112 6.08783 1.75 7.44673 1.75V0.25ZM1.75715 7.7165C1.75715 6.3013 1.7581 5.29768 1.83854 4.52325C1.91771 3.76108 2.06708 3.30953 2.30581 2.96682L1.07499 2.10945C0.630468 2.74759 0.438209 3.48606 0.346569 4.36827C0.256201 5.23822 0.257148 6.33336 0.257148 7.7165H1.75715ZM2.02889 1.11487C1.66168 1.39314 1.34 1.72901 1.07499 2.10945L2.30581 2.96682C2.48212 2.71371 2.69463 2.49242 2.93484 2.31039L2.02889 1.11487ZM15.3511 3.50055C15.3484 2.96049 15.3371 2.47932 15.2669 2.07627C15.1933 1.65417 15.0452 1.25307 14.7241 0.918107L13.6413 1.95621C13.6886 2.0055 13.7469 2.09155 13.7891 2.33375C13.8347 2.595 13.8484 2.95526 13.8511 3.50796L15.3511 3.50055ZM0.257148 7.7165C0.257148 8.49178 0.241016 9.21295 0.257408 9.82024L1.75686 9.77976C1.74113 9.19695 1.75715 8.5445 1.75715 7.7165H0.257148ZM16.6002 11.1227H11.9114V12.6227H16.6002V11.1227ZM8.98052 9.69092C8.98052 11.3098 10.2924 12.6227 11.9114 12.6227V11.1227C11.1214 11.1227 10.4805 10.482 10.4805 9.69092H8.98052ZM10.4805 9.69092C10.4805 8.89983 11.1214 8.2591 11.9114 8.2591V6.7591C10.2924 6.7591 8.98052 8.07204 8.98052 9.69092H10.4805ZM14.0922 8.94092H11.9114V10.4409H14.0922V8.94092ZM10.203 4.15C11.312 4.15 12.1545 4.15032 12.8354 4.19236C13.5155 4.23434 13.9775 4.31563 14.3347 4.45135L14.8675 3.04915C14.3028 2.83462 13.6661 2.74079 12.9278 2.69521C12.1903 2.64968 11.2947 2.65 10.203 2.65V4.15ZM14.3347 4.45135C14.468 4.50199 14.5876 4.56065 14.6988 4.62884L15.4828 3.35004C15.2878 3.23044 15.0835 3.13123 14.8675 3.04915L14.3347 4.45135ZM13.8511 3.50426V3.75025H15.3511V3.50426H13.8511ZM11.9114 8.2591H16.9555V6.7591H11.9114V8.2591ZM17.75 10.2C17.75 9.10218 17.7503 8.20255 17.7041 7.46234L16.207 7.55587C16.2497 8.23877 16.25 9.08468 16.25 10.2H17.75ZM17.7041 7.46234C17.6409 6.45063 17.4871 5.63123 17.0504 4.91826L15.7713 5.70175C16.015 6.09964 16.1487 6.62284 16.207 7.55587L17.7041 7.46234ZM16.25 10.2C16.25 10.8304 16.25 11.3768 16.242 11.8603L17.7417 11.8852C17.75 11.3867 17.75 10.8268 17.75 10.2H16.25ZM16.242 11.8603C16.2159 13.4302 16.0989 14.1634 15.7713 14.6982L17.0504 15.4817C17.6183 14.5546 17.7162 13.4244 17.7417 11.8852L16.242 11.8603ZM16.6002 12.6227H16.9919V11.1227H16.6002V12.6227Z" fill="#A4A4A6"/>
</svg>
