<svg version="1.0" id="Capa_1" xmlns="http://www.w3.org/2000/svg" xmlns:xlink="http://www.w3.org/1999/xlink" x="0px" y="0px" width="1200px" height="1200px" viewBox="0 0 1200 1200" enable-background="new 0 0 1200 1200" xml:space="preserve">
<g>
  <path d="M926.165,920.754l-182.805,0.461l1.54-108.697l-206.684,126.02l202.89,140.031l1.582-110.062l183.595-0.461
    c44.456-0.111,83.998-23.315,105.775-62.072c21.776-38.758,21.027-84.6-2.005-122.633l-88.998-146.947
    c-3.054-9.808-12.204-16.93-23.018-16.93c-13.313,0-24.104,10.792-24.104,24.104c0,6.618,2.67,12.609,6.988,16.965
    c-0.121,0.096-0.246,0.185-0.367,0.28L989.6,807.838c14.082,23.253,14.54,51.279,1.228,74.972
    C977.516,906.504,953.345,920.688,926.165,920.754z" style="fill: rgb(158, 158, 158);"></path>
  <path d="M818.071,359.174l-123.452-201.13c-23.241-37.874-63.478-59.541-107.591-57.962
    c-44.221,1.412-82.973,25.605-103.658,64.716l-97.376,184.103c-3.477,4.143-5.578,9.48-5.578,15.313
    c0,13.166,10.673,23.84,23.839,23.84c7.82,0,14.739-3.783,19.086-9.599c0.107,0.072,0.214,0.147,0.321,0.219
    c0.02,0.014,0.04,0.024,0.06,0.038l101.446-191.795c12.654-23.915,36.343-38.707,63.432-39.571
    c26.922-1.029,51.466,12.218,65.718,35.432l123.998,202.019l-99.078,63.892l206.383,134.858l-2.932-266.051L818.071,359.174z" style="fill: rgb(158, 158, 158);"></path>
  <path d="M163.529,1072.66c14.208,24.081,36.595,27.144,37.539,27.274L392.055,1100l0.652-0.065
    c0.946-0.13,23.332-3.193,37.54-27.274c19.095-32.325,14.207-85.05-14.436-156.674l-0.13-0.261
    c-0.228-0.554-22.843-54.354,0.424-150.352c4.627-12.383,58.036-163.941-70.842-245.666l-2.542-1.629h-4.725
    c14.827-7.593,24.993-23.039,24.993-40.798v-40.374c0-25.287-20.594-45.881-45.881-45.881H276.7
    c-25.319,0-45.881,20.595-45.881,45.881v40.374c0,17.759,10.134,33.205,24.993,40.798h-4.79l-2.542,1.629
    c-128.845,81.726-75.437,233.283-70.81,245.666c23.071,95.314,0.619,149.831,0.293,150.613
    C149.321,987.643,144.466,1040.335,163.529,1072.66z M320.952,739.109H272.79c-31.445,0-57.058-25.612-57.058-57.058
    c0-31.478,25.613-57.058,57.058-57.058h48.162c31.446,0,57.059,25.58,57.059,57.058
    C378.011,713.497,352.398,739.109,320.952,739.109z" style="fill: rgb(158, 158, 158);"></path>
</g>
</svg>
